<svg width="174" height="40" viewBox="0 0 174 40" fill="none" xmlns="http://www.w3.org/2000/svg">
<path d="M13.9921 20.4901C13.9813 21.9003 13.7122 23.149 13.1847 24.2363C12.668 25.3127 11.9898 26.217 11.1501 26.949C10.3212 27.681 9.39546 28.2354 8.3728 28.6122C7.35013 28.989 6.33284 29.1774 5.32094 29.1774H4.99799C4.99799 29.6295 4.99799 30.1677 4.99799 30.7921C5.00876 31.4057 5.0249 32.0785 5.04643 32.8105C5.06796 33.5318 5.09487 34.2907 5.12717 35.0873C5.17023 35.8731 5.22405 36.659 5.28864 37.4448C4.65351 37.3802 4.07221 37.3372 3.54473 37.3156C3.01724 37.2941 2.55435 37.2834 2.15605 37.2834C1.94075 37.2834 1.75236 37.2834 1.59089 37.2834C1.42942 37.2941 1.29485 37.2995 1.18721 37.2995C1.05803 37.3103 0.950377 37.3156 0.864258 37.3156C0.918082 36.476 0.966525 35.6363 1.00958 34.7967C1.05264 33.9462 1.09032 33.1173 1.12262 32.31C1.15491 31.4918 1.17644 30.706 1.18721 29.9524C1.20874 29.1989 1.23027 28.4884 1.2518 27.821C1.28409 26.2708 1.30562 24.7853 1.31638 23.3643C1.31638 21.9972 1.30562 20.6892 1.28409 19.4405C1.27333 18.913 1.26256 18.3694 1.2518 17.8096C1.24103 17.2498 1.22488 16.7062 1.20335 16.1787C1.19259 15.6512 1.17644 15.1614 1.15491 14.7093C1.14415 14.2464 1.12262 13.8481 1.09032 13.5144C1.91922 13.3637 2.72659 13.2722 3.51243 13.2399C4.30904 13.1968 4.9657 13.1753 5.48241 13.1753C5.88071 13.1753 6.37052 13.1914 6.95183 13.2237C7.53313 13.256 8.13597 13.3475 8.76033 13.4982C9.39546 13.6382 10.0252 13.8642 10.6496 14.1764C11.2739 14.4778 11.8337 14.8977 12.3289 15.4359C12.8241 15.9742 13.2224 16.6577 13.5238 17.4866C13.836 18.3048 13.9921 19.3059 13.9921 20.4901ZM9.82606 20.6192C9.82606 19.8011 9.73456 19.1014 9.55155 18.5201C9.36855 17.928 9.08866 17.4436 8.71189 17.0668C8.34588 16.69 7.87223 16.4048 7.29092 16.211C6.72038 16.0172 6.04219 15.8988 5.25635 15.8558C5.21329 16.8031 5.17561 17.7988 5.14332 18.843C5.12179 19.8872 5.10026 20.9045 5.07873 21.8949C5.0572 22.8745 5.04105 23.7895 5.03028 24.6399C5.01952 25.4796 5.00876 26.1686 4.99799 26.7068C5.80536 26.6637 6.51046 26.4861 7.1133 26.1739C7.71614 25.8618 8.2167 25.4419 8.61501 24.9144C9.02407 24.387 9.32549 23.7626 9.51926 23.0413C9.72379 22.3093 9.82606 21.502 9.82606 20.6192Z" fill="white"/>
<path d="M70.4721 13.984C70.569 15.265 70.6551 16.6106 70.7305 18.0208C70.7627 18.6237 70.795 19.2696 70.8273 19.9585C70.8596 20.6475 70.8865 21.3687 70.9081 22.1223C70.9296 22.865 70.9458 23.6294 70.9565 24.4152C70.978 25.1903 70.9888 25.9653 70.9888 26.7404C70.9888 28.2583 70.8919 29.7008 70.6982 31.0679C70.5044 32.4351 70.1868 33.6407 69.7455 34.6849C69.3041 35.7291 68.7228 36.558 68.0015 37.1716C67.2803 37.7852 66.3922 38.092 65.3372 38.092C65.3157 38.092 65.2188 38.0867 65.0466 38.0759C64.8851 38.0651 64.6752 38.0274 64.4168 37.9629C64.1585 37.8983 63.8678 37.796 63.5449 37.6561C63.2327 37.5161 62.9151 37.317 62.5922 37.0586C62.2692 36.8002 61.9624 36.4719 61.6718 36.0736C61.3811 35.6645 61.1389 35.1694 60.9451 34.5881C60.7191 35.1371 60.4499 35.5946 60.1378 35.9606C59.8256 36.3266 59.5026 36.6334 59.1689 36.881C58.8352 37.1178 58.4961 37.3008 58.1516 37.43C57.8179 37.5592 57.5165 37.6507 57.2474 37.7045C56.9783 37.7583 56.7522 37.7906 56.5692 37.8014C56.3862 37.8121 56.2785 37.8175 56.2462 37.8175C55.6003 37.8175 55.046 37.6668 54.5831 37.3654C54.1309 37.0748 53.7434 36.6711 53.4204 36.1544C53.1083 35.6269 52.8607 35.0133 52.6777 34.3135C52.4947 33.6031 52.3493 32.8388 52.2417 32.0206C52.1448 31.1917 52.0802 30.3251 52.0479 29.4209C52.0264 28.5166 52.0156 27.6124 52.0156 26.7081C52.0156 25.89 52.021 25.0772 52.0318 24.2699C52.0425 23.4517 52.0533 22.6605 52.0641 21.8962C52.0856 21.1319 52.1071 20.3999 52.1287 19.7002C52.161 18.9897 52.1879 18.333 52.2094 17.7302C52.2632 16.3092 52.3278 14.969 52.4032 13.7095L57.1343 13.8387C56.9298 15.0874 56.7468 16.4007 56.5853 17.7786C56.5207 18.3707 56.4562 19.0058 56.3916 19.684C56.327 20.3622 56.2678 21.0727 56.2139 21.8155C56.1709 22.5475 56.1332 23.3064 56.1009 24.0922C56.0686 24.8673 56.0525 25.6424 56.0525 26.4175C56.0525 27.0095 56.0525 27.607 56.0525 28.2098C56.0632 28.8127 56.0794 29.3994 56.1009 29.9699C56.1332 30.5297 56.1763 31.0572 56.2301 31.5523C56.2839 32.0368 56.3593 32.4674 56.4562 32.8441C56.5638 33.2101 56.693 33.5008 56.8437 33.7161C57.0052 33.9206 57.2043 34.0229 57.4411 34.0229C57.6672 34.0229 57.8771 33.8829 58.0709 33.6031C58.2754 33.3232 58.4531 32.9572 58.6038 32.505C58.7652 32.0421 58.9052 31.5254 59.0236 30.9549C59.1528 30.3736 59.255 29.7923 59.3304 29.211C59.4165 28.6189 59.4811 28.0484 59.5242 27.4993C59.5672 26.9503 59.5888 26.4767 59.5888 26.0784C59.5888 25.9492 59.5941 25.7823 59.6049 25.5778C59.6049 25.3948 59.6049 25.1634 59.6049 24.8835C59.6157 24.5928 59.621 24.243 59.621 23.8339C59.621 23.0158 59.6103 21.9123 59.5888 20.5237C59.5672 19.1242 59.5349 17.3749 59.4919 15.2758L63.5933 15.4372C63.4964 17.1704 63.4157 18.6452 63.3511 19.8616C63.2865 21.0781 63.2327 22.0954 63.1896 22.9135C63.1466 23.7209 63.1143 24.3721 63.0927 24.8673C63.082 25.3517 63.0712 25.7393 63.0604 26.0299C63.0604 26.3098 63.0604 26.5251 63.0604 26.6758C63.0604 26.8158 63.0604 26.9503 63.0604 27.0795C63.0604 27.5424 63.0766 28.043 63.1089 28.5812C63.1519 29.1087 63.2112 29.6362 63.2865 30.1637C63.3726 30.6911 63.4749 31.2025 63.5933 31.6977C63.7225 32.1821 63.8624 32.6127 64.0131 32.9895C64.1746 33.3555 64.3522 33.6515 64.546 33.8776C64.7505 34.1036 64.9712 34.2167 65.208 34.2167C65.5741 34.2167 65.8647 34.0121 66.08 33.6031C66.3061 33.194 66.4729 32.6396 66.5806 31.9399C66.699 31.2294 66.7743 30.4113 66.8066 29.4855C66.8389 28.5489 66.8551 27.5586 66.8551 26.5144C66.8551 24.8889 66.8174 23.3871 66.742 22.0092C66.6775 20.6313 66.5913 19.4095 66.4837 18.3438C66.376 17.2673 66.263 16.3523 66.1446 15.5987C66.0369 14.8344 65.9454 14.2585 65.8701 13.8709L70.4721 13.984Z" fill="white"/>
<path d="M39.1448 6.41281C39.497 4.14485 38.5278 2.13731 36.9729 1.92634C36.8846 1.91409 36.7955 1.90803 36.7063 1.90821C35.2501 1.90821 33.863 3.50699 33.5306 5.64474C33.1785 7.9127 34.1477 9.92024 35.7026 10.1312C35.7915 10.1427 35.8803 10.1493 35.9692 10.1493C37.4254 10.1493 38.8158 8.54397 39.1448 6.41281Z" fill="#FF6000"/>
<path d="M27.9245 10.1312C27.8359 10.1427 27.7474 10.1493 27.6571 10.1493C26.2012 10.1487 24.813 8.54356 24.4774 6.41281C24.1269 4.14485 25.096 2.13731 26.6493 1.92634C26.7382 1.9148 26.827 1.90821 26.9175 1.90821C28.3737 1.90821 29.7625 3.50699 30.0965 5.64474C30.447 7.9127 29.4778 9.92024 27.9245 10.1312Z" fill="#FF6000"/>
<path d="M44.6176 8.50111C44.8471 8.50079 45.0743 8.54676 45.2857 8.63627C46.6234 9.21644 47.0249 11.4663 46.1758 13.6667C45.4584 15.5193 44.0828 16.7422 42.8669 16.7422C42.6382 16.7422 42.4111 16.6977 42.1988 16.6071C40.8529 16.0269 40.4596 13.7771 41.3136 11.5767C42.0261 9.73728 43.3835 8.52089 44.5929 8.50111H44.6176Z" fill="#FF6000"/>
<path d="M22.312 11.5767C23.1643 13.7738 22.7727 16.0269 21.43 16.6071C21.2161 16.6977 20.9907 16.7422 20.7603 16.7422C19.546 16.7422 18.1721 15.5193 17.4546 13.6667C16.6023 11.4696 16.9939 9.21644 18.3366 8.63627C18.5505 8.54561 18.7759 8.50111 19.0063 8.50111C20.2206 8.50111 21.5946 9.7241 22.312 11.5767Z" fill="#FF6000"/>
<path d="M31.8643 14.8736C35.0618 14.8736 35.9278 16.1515 38.7214 21.2121C39.8949 23.3299 41.7374 24.6432 43.4526 25.8658C45.2344 27.1357 46.8788 28.3078 47.4935 30.1822C47.7398 30.8541 47.8643 31.8987 47.8643 32.6213C47.8643 35.6054 45.8655 37.692 43.2929 37.692C39.5766 37.692 37.6211 35.2725 35.9301 33.1801C34.6419 31.5863 33.5071 30.1822 31.8643 30.1822C30.2018 30.1822 29.0076 31.6202 27.6644 33.2377C25.938 35.3166 23.9654 37.692 20.4358 37.692C17.8631 37.692 15.8644 35.6028 15.8644 32.6213C15.8593 31.8987 15.9812 30.8541 16.2276 30.1822C16.8375 28.3286 18.3752 27.3201 20.0559 26.2179C21.6992 25.1402 23.4791 23.9729 24.6618 21.8383C27.4555 16.7879 28.6669 14.8736 31.8643 14.8736Z" fill="#FF6000"/>
<path d="M39.1448 6.41281C39.497 4.14485 38.5278 2.13731 36.9729 1.92634C36.8846 1.91409 36.7955 1.90803 36.7063 1.90821C35.2501 1.90821 33.863 3.50699 33.5306 5.64474C33.1785 7.9127 34.1477 9.92024 35.7026 10.1312C35.7915 10.1427 35.8803 10.1493 35.9692 10.1493C37.4254 10.1493 38.8158 8.54397 39.1448 6.41281Z" stroke="#FF6000" stroke-width="3" stroke-linecap="round" stroke-linejoin="round"/>
<path d="M27.9245 10.1312C27.8359 10.1427 27.7474 10.1493 27.6571 10.1493C26.2012 10.1487 24.813 8.54356 24.4774 6.41281C24.1269 4.14485 25.096 2.13731 26.6493 1.92634C26.7382 1.9148 26.827 1.90821 26.9175 1.90821C28.3737 1.90821 29.7625 3.50699 30.0965 5.64474C30.447 7.9127 29.4778 9.92024 27.9245 10.1312Z" stroke="#FF6000" stroke-width="3" stroke-linecap="round" stroke-linejoin="round"/>
<path d="M44.6176 8.50111C44.8471 8.50079 45.0743 8.54676 45.2857 8.63627C46.6234 9.21644 47.0249 11.4663 46.1758 13.6667C45.4584 15.5193 44.0828 16.7422 42.8669 16.7422C42.6382 16.7422 42.4111 16.6977 42.1988 16.6071C40.8529 16.0269 40.4596 13.7771 41.3136 11.5767C42.0261 9.73728 43.3835 8.52089 44.5929 8.50111H44.6176Z" stroke="#FF6000" stroke-width="3" stroke-linecap="round" stroke-linejoin="round"/>
<path d="M22.312 11.5767C23.1643 13.7738 22.7727 16.0269 21.43 16.6071C21.2161 16.6977 20.9907 16.7422 20.7603 16.7422C19.546 16.7422 18.1721 15.5193 17.4546 13.6667C16.6023 11.4696 16.9939 9.21644 18.3366 8.63627C18.5505 8.54561 18.7759 8.50111 19.0063 8.50111C20.2206 8.50111 21.5946 9.7241 22.312 11.5767Z" stroke="#FF6000" stroke-width="3" stroke-linecap="round" stroke-linejoin="round"/>
<path d="M31.8643 14.8736C35.0618 14.8736 35.9278 16.1515 38.7214 21.2121C39.8949 23.3299 41.7374 24.6432 43.4526 25.8658C45.2344 27.1357 46.8788 28.3078 47.4935 30.1822C47.7398 30.8541 47.8643 31.8987 47.8643 32.6213C47.8643 35.6054 45.8655 37.692 43.2929 37.692C39.5766 37.692 37.6211 35.2725 35.9301 33.1801C34.6419 31.5863 33.5071 30.1822 31.8643 30.1822C30.2018 30.1822 29.0076 31.6202 27.6644 33.2377C25.938 35.3166 23.9654 37.692 20.4358 37.692C17.8631 37.692 15.8644 35.6028 15.8644 32.6213C15.8593 31.8987 15.9812 30.8541 16.2276 30.1822C16.8375 28.3286 18.3752 27.3201 20.0559 26.2179C21.6992 25.1402 23.4791 23.9729 24.6618 21.8383C27.4555 16.7879 28.6669 14.8736 31.8643 14.8736Z" stroke="#FF6000" stroke-width="3" stroke-linecap="round" stroke-linejoin="round"/>
<path d="M27.0496 23.4872L28.9568 24.6344V26.6397V28.6646H31.6436H34.3303V27.934V27.228L32.0848 27.1545L29.8148 27.0809L29.7413 24.6884L29.6677 22.3203H27.4222H25.1768L27.0496 23.4872Z" fill="white"/>
<path d="M34.332 23.4135C34.332 24.0263 34.4056 24.5117 34.5281 24.5117C34.6262 24.5117 35.4793 23.9969 36.4108 23.4135L38.1219 22.3153H36.2392H34.332V23.4135Z" fill="white"/>
<path d="M100.843 30.5191C100.789 31.5741 100.601 32.4891 100.278 33.2642C99.9546 34.0285 99.5402 34.6851 99.0342 35.2341C98.539 35.7724 97.9739 36.2137 97.3388 36.5582C96.7144 36.8919 96.0793 37.1557 95.4334 37.3494C94.7982 37.5432 94.1685 37.6724 93.5441 37.737C92.9305 37.8123 92.3869 37.85 91.9132 37.85C90.9982 37.85 90.137 37.8231 89.3297 37.7693C88.533 37.7155 87.7526 37.624 86.9883 37.4948C87.0529 36.8166 87.1067 36.0738 87.1498 35.2664C87.1928 34.4483 87.2305 33.6194 87.2628 32.7797C87.2951 31.9293 87.3166 31.095 87.3274 30.2769C87.3381 29.4588 87.3489 28.7052 87.3597 28.0163C87.3704 27.3165 87.3758 26.7137 87.3758 26.2077C87.3758 25.691 87.3758 25.3196 87.3758 25.0936C87.3651 23.5542 87.3435 22.0686 87.3112 20.6369C87.3005 20.0233 87.2843 19.3989 87.2628 18.7638C87.252 18.1179 87.2359 17.4935 87.2143 16.8907C87.2036 16.2771 87.1874 15.7012 87.1659 15.1629C87.1444 14.6139 87.1175 14.1295 87.0852 13.7097C87.3866 13.6666 87.7149 13.6343 88.0702 13.6128C88.4362 13.5913 88.7968 13.5751 89.152 13.5643C89.518 13.5428 89.8733 13.532 90.2178 13.532C90.573 13.5213 90.896 13.5159 91.1866 13.5159C92.4892 13.5159 93.7164 13.6128 94.8682 13.8066C96.0308 14.0003 97.0427 14.334 97.9039 14.8077C98.7759 15.2706 99.4595 15.8896 99.9546 16.6646C100.461 17.4289 100.714 18.387 100.714 19.5389C100.66 20.2386 100.488 20.8953 100.197 21.5089C100.068 21.778 99.9062 22.0525 99.7124 22.3324C99.5294 22.6015 99.298 22.8599 99.0181 23.1074C98.7382 23.355 98.4099 23.5865 98.0331 23.8018C97.6563 24.0171 97.2257 24.1947 96.7413 24.3347C97.441 24.5177 98.0277 24.7922 98.5014 25.1582C98.975 25.5242 99.3626 25.9332 99.664 26.3854C99.9762 26.8267 100.208 27.2842 100.358 27.7579C100.52 28.2316 100.633 28.6675 100.697 29.0658C100.773 29.4641 100.816 29.7978 100.827 30.067C100.837 30.3361 100.843 30.4868 100.843 30.5191ZM96.3053 30.6806C96.273 29.7763 96.1223 28.9636 95.8532 28.2423C95.7348 27.9409 95.5841 27.6449 95.4011 27.3542C95.2288 27.0528 95.0135 26.7891 94.7552 26.563C94.4968 26.3262 94.19 26.1378 93.8348 25.9978C93.4795 25.8579 93.0705 25.7879 92.6076 25.7879C92.4892 25.7879 92.3654 25.7933 92.2362 25.8041C92.107 25.8148 91.9671 25.831 91.8164 25.8525L91.6872 34.9758C92.0101 35.0404 92.3277 35.0727 92.6399 35.0727C93.092 35.0727 93.4849 35.0135 93.8186 34.895C94.1631 34.7659 94.4645 34.599 94.7229 34.3945C94.9812 34.1792 95.1965 33.9423 95.3688 33.684C95.5518 33.4256 95.7025 33.1565 95.8209 32.8766C96.1008 32.2307 96.2623 31.4987 96.3053 30.6806ZM96.2407 19.442C96.1977 18.8392 96.047 18.3009 95.7886 17.8273C95.681 17.6227 95.541 17.4236 95.3688 17.2298C95.2073 17.036 95.0028 16.8638 94.7552 16.7131C94.5183 16.5624 94.2331 16.4386 93.8994 16.3417C93.5764 16.2448 93.1996 16.1964 92.769 16.1964C92.4246 16.1964 92.0424 16.2287 91.6226 16.2932L91.8164 23.1397H92.1716C92.839 23.1397 93.4042 23.0536 93.8671 22.8814C94.33 22.6984 94.7121 22.4777 95.0135 22.2193C95.315 21.9502 95.5464 21.6596 95.7079 21.3474C95.8801 21.0352 96.0039 20.7445 96.0793 20.4754C96.1546 20.1955 96.1977 19.9641 96.2084 19.7811C96.23 19.5873 96.2407 19.4743 96.2407 19.442Z" fill="white"/>
<path d="M118.448 26.2885C118.448 27.2035 118.415 28.1293 118.351 29.0658C118.297 30.0024 118.184 30.9066 118.012 31.7786C117.85 32.6506 117.613 33.4741 117.301 34.2491C117 35.0135 116.607 35.6809 116.122 36.2514C115.638 36.822 115.051 37.2687 114.362 37.5917C113.673 37.9254 112.855 38.0922 111.908 38.0922C111.004 38.0922 110.218 37.9469 109.55 37.6562C108.883 37.3764 108.312 36.9942 107.839 36.5098C107.365 36.0146 106.978 35.4333 106.676 34.7659C106.386 34.0877 106.154 33.3664 105.982 32.6021C105.81 31.827 105.691 31.0197 105.627 30.18C105.562 29.3403 105.53 28.5061 105.53 27.6772C105.53 27.4619 105.53 27.2735 105.53 27.112C105.54 26.9505 105.551 26.7783 105.562 26.5953C105.573 26.4015 105.584 26.1755 105.594 25.9171C105.616 25.648 105.637 25.3089 105.659 24.8998C105.68 24.48 105.702 23.9686 105.723 23.3658C105.756 22.7522 105.788 22.004 105.82 21.1213C105.863 20.2386 105.901 19.1998 105.933 18.0049C105.976 16.7992 106.025 15.3998 106.079 13.8066L110.907 13.9842C110.745 15.642 110.595 17.0683 110.455 18.2632C110.315 19.4474 110.191 20.4916 110.083 21.3958C109.976 22.3001 109.879 23.0967 109.793 23.7856C109.707 24.4746 109.637 25.142 109.583 25.7879C109.529 26.4338 109.486 27.0959 109.454 27.774C109.432 28.4522 109.421 29.2327 109.421 30.1154C109.421 31.7625 109.599 33.0112 109.954 33.8616C110.309 34.712 110.907 35.1373 111.746 35.1373C112.661 35.1373 113.361 34.5936 113.846 33.5064C114.341 32.4083 114.588 30.686 114.588 28.3392C114.588 25.7772 114.497 23.3066 114.314 20.9276C114.131 18.5377 113.889 16.1802 113.587 13.855L118.157 13.7097C118.135 14.1295 118.125 14.5439 118.125 14.953C118.125 15.3513 118.125 15.755 118.125 16.1641C118.125 17.2944 118.141 18.3924 118.173 19.4581C118.205 20.5131 118.243 21.4873 118.286 22.3808C118.329 23.2635 118.367 24.044 118.399 24.7222C118.431 25.4004 118.448 25.9225 118.448 26.2885Z" fill="white"/>
<path d="M137.474 25.8202C137.474 27.5749 137.307 29.0927 136.973 30.3738C136.65 31.644 136.23 32.7313 135.713 33.6355C135.197 34.529 134.615 35.2557 133.97 35.8154C133.324 36.3752 132.678 36.8058 132.032 37.1072C131.386 37.4194 130.778 37.6293 130.207 37.737C129.637 37.8554 129.168 37.9146 128.802 37.9146C128.716 37.9146 128.522 37.9092 128.221 37.8985C127.93 37.8877 127.57 37.8608 127.139 37.8177C126.709 37.7854 126.219 37.7316 125.67 37.6562C125.132 37.5809 124.566 37.4732 123.974 37.3333C123.985 35.2018 123.996 33.3557 124.007 31.7947C124.028 30.2231 124.044 28.8721 124.055 27.7417C124.066 26.6114 124.077 25.6641 124.087 24.8998C124.098 24.1355 124.103 23.4788 124.103 22.9298C124.114 22.3808 124.12 21.9125 124.12 21.525C124.13 21.1267 124.136 20.7392 124.136 20.3624C124.136 19.7703 124.13 19.1621 124.12 18.5377C124.109 17.9026 124.087 17.289 124.055 16.6969C124.023 16.1049 123.98 15.5505 123.926 15.0338C123.872 14.517 123.802 14.0757 123.716 13.7097C124.556 13.6558 125.32 13.6235 126.009 13.6128C126.709 13.5913 127.311 13.5805 127.817 13.5805C129.088 13.5805 130.207 13.7366 131.176 14.0488C132.145 14.3502 132.985 14.7754 133.695 15.3244C134.416 15.8627 135.014 16.5139 135.487 17.2782C135.972 18.0318 136.359 18.8607 136.65 19.7649C136.951 20.6692 137.161 21.638 137.28 22.6715C137.409 23.6941 137.474 24.7437 137.474 25.8202ZM133.275 25.3196C133.275 23.4142 133.184 21.8641 133.001 20.6692C132.828 19.4635 132.543 18.527 132.145 17.8595C131.757 17.1921 131.246 16.74 130.611 16.5032C129.986 16.2556 129.228 16.1318 128.334 16.1318H127.85L128.043 35.105C128.259 35.1911 128.458 35.2503 128.641 35.2826C128.835 35.3041 129.023 35.3149 129.206 35.3149C129.927 35.3149 130.541 35.148 131.047 34.8143C131.564 34.4698 131.983 33.9101 132.306 33.135C132.64 32.3491 132.882 31.3211 133.033 30.0508C133.194 28.7698 133.275 27.1927 133.275 25.3196Z" fill="white"/>
<path d="M156.112 25.8202C156.112 27.5749 155.945 29.0927 155.611 30.3738C155.288 31.644 154.868 32.7313 154.352 33.6355C153.835 34.529 153.254 35.2557 152.608 35.8154C151.962 36.3752 151.316 36.8058 150.67 37.1072C150.024 37.4194 149.416 37.6293 148.846 37.737C148.275 37.8554 147.807 37.9146 147.441 37.9146C147.355 37.9146 147.161 37.9092 146.859 37.8985C146.569 37.8877 146.208 37.8608 145.778 37.8177C145.347 37.7854 144.857 37.7316 144.308 37.6562C143.77 37.5809 143.205 37.4732 142.613 37.3333C142.623 35.2018 142.634 33.3557 142.645 31.7947C142.666 30.2231 142.683 28.8721 142.693 27.7417C142.704 26.6114 142.715 25.6641 142.726 24.8998C142.736 24.1355 142.742 23.4788 142.742 22.9298C142.753 22.3808 142.758 21.9125 142.758 21.525C142.769 21.1267 142.774 20.7392 142.774 20.3624C142.774 19.7703 142.769 19.1621 142.758 18.5377C142.747 17.9026 142.726 17.289 142.693 16.6969C142.661 16.1049 142.618 15.5505 142.564 15.0338C142.51 14.517 142.44 14.0757 142.354 13.7097C143.194 13.6558 143.958 13.6235 144.647 13.6128C145.347 13.5913 145.95 13.5805 146.456 13.5805C147.726 13.5805 148.846 13.7366 149.814 14.0488C150.783 14.3502 151.623 14.7754 152.333 15.3244C153.055 15.8627 153.652 16.5139 154.126 17.2782C154.61 18.0318 154.998 18.8607 155.288 19.7649C155.59 20.6692 155.8 21.638 155.918 22.6715C156.047 23.6941 156.112 24.7437 156.112 25.8202ZM151.914 25.3196C151.914 23.4142 151.822 21.8641 151.639 20.6692C151.467 19.4635 151.181 18.527 150.783 17.8595C150.396 17.1921 149.884 16.74 149.249 16.5032C148.625 16.2556 147.866 16.1318 146.972 16.1318H146.488L146.682 35.105C146.897 35.1911 147.096 35.2503 147.279 35.2826C147.473 35.3041 147.661 35.3149 147.844 35.3149C148.566 35.3149 149.179 35.148 149.685 34.8143C150.202 34.4698 150.622 33.9101 150.945 33.135C151.278 32.3491 151.521 31.3211 151.671 30.0508C151.833 28.7698 151.914 27.1927 151.914 25.3196Z" fill="white"/>
<path d="M173.135 13.8873C172.662 15.136 172.215 16.3848 171.795 17.6335C171.375 18.8822 170.972 20.1363 170.584 21.3958C170.207 22.6553 169.836 23.9202 169.47 25.1905C169.104 26.4607 168.738 27.731 168.372 29.0012C168.447 30.4437 168.528 31.8755 168.614 33.2965C168.7 34.7067 168.819 36.1276 168.969 37.5594L164.044 37.7531C164.184 36.0738 164.287 34.4106 164.351 32.7636C164.427 31.1166 164.48 29.4534 164.513 27.774C163.673 25.3735 162.79 23.0159 161.865 20.7015C160.939 18.3763 159.959 16.0564 158.926 13.742C159.722 13.7204 160.567 13.6881 161.461 13.6451C162.354 13.5913 163.183 13.5051 163.948 13.3867C164.141 14.3771 164.324 15.3675 164.497 16.3578C164.68 17.3482 164.863 18.344 165.046 19.3451C165.239 20.3355 165.444 21.3205 165.659 22.3001C165.874 23.2797 166.122 24.2431 166.402 25.1905C166.865 23.2528 167.279 21.3043 167.645 19.3451C168.011 17.3859 168.334 15.4536 168.614 13.5482C170.1 13.742 171.607 13.855 173.135 13.8873Z" fill="white"/>
</svg>
