<svg width="121" height="96" viewBox="0 0 121 96" fill="none" xmlns="http://www.w3.org/2000/svg">
<path d="M19.7988 85.433C19.7238 86.905 19.4614 88.1818 19.0115 89.2633C18.5617 90.3297 17.9844 91.246 17.2796 92.012C16.5898 92.7631 15.8026 93.3789 14.9179 93.8596C14.0481 94.3252 13.1634 94.6932 12.2637 94.9636C11.379 95.234 10.5018 95.4142 9.63206 95.5043C8.77734 95.6095 8.02008 95.662 7.36029 95.662C6.0857 95.662 4.88609 95.6245 3.76145 95.5494C2.65181 95.4743 1.56466 95.3466 0.5 95.1664C0.589971 94.2201 0.664947 93.1836 0.724928 92.0571C0.784908 90.9155 0.837391 89.7589 0.882377 88.5873C0.927363 87.4007 0.957353 86.2366 0.972348 85.095C0.987343 83.9535 1.00234 82.902 1.01733 81.9407C1.03233 80.9643 1.03983 80.1232 1.03983 79.4172C1.03983 78.6962 1.03983 78.178 1.03983 77.8626C1.02483 75.7146 0.994841 73.6418 0.949855 71.644C0.93486 70.7879 0.912367 69.9167 0.882377 69.0304C0.867382 68.1292 0.844889 67.258 0.814899 66.4169C0.799904 65.5607 0.777411 64.7571 0.74742 64.006C0.71743 63.24 0.679942 62.5641 0.634957 61.9783C1.05482 61.9182 1.51217 61.8731 2.00702 61.8431C2.51685 61.813 3.01919 61.7905 3.51403 61.7755C4.02387 61.7454 4.51871 61.7304 4.99855 61.7304C5.49339 61.7154 5.94325 61.7079 6.34812 61.7079C8.16253 61.7079 9.87198 61.8431 11.4765 62.1134C13.0959 62.3838 14.5055 62.8495 15.7051 63.5104C16.9197 64.1562 17.8719 65.0199 18.5617 66.1014C19.2665 67.1679 19.6188 68.5047 19.6188 70.1119C19.5439 71.0883 19.3039 72.0045 18.8991 72.8607C18.7191 73.2362 18.4942 73.6193 18.2243 74.0098C17.9694 74.3853 17.647 74.7458 17.2571 75.0913C16.8672 75.4368 16.4099 75.7597 15.885 76.0601C15.3602 76.3605 14.7604 76.6084 14.0856 76.8036C15.0603 77.059 15.8776 77.442 16.5373 77.9527C17.1971 78.4634 17.737 79.0342 18.1568 79.6651C18.5917 80.2809 18.9141 80.9193 19.124 81.5802C19.3489 82.2411 19.5064 82.8494 19.5964 83.4052C19.7013 83.961 19.7613 84.4266 19.7763 84.8021C19.7913 85.1776 19.7988 85.3879 19.7988 85.433ZM13.4783 85.6583C13.4333 84.3966 13.2234 83.2625 12.8485 82.2561C12.6836 81.8355 12.4736 81.4225 12.2187 81.0169C11.9788 80.5963 11.6789 80.2283 11.319 79.9129C10.9591 79.5824 10.5318 79.3196 10.0369 79.1243C9.54209 78.9291 8.97227 78.8314 8.32748 78.8314C8.16253 78.8314 7.99009 78.8389 7.81015 78.8539C7.63021 78.869 7.43527 78.8915 7.22534 78.9215L7.04539 91.6515C7.49525 91.7417 7.93761 91.7867 8.37247 91.7867C9.00226 91.7867 9.54959 91.7041 10.0144 91.5389C10.4943 91.3586 10.9141 91.1258 11.274 90.8404C11.6339 90.54 11.9338 90.2096 12.1737 89.8491C12.4287 89.4886 12.6386 89.113 12.8035 88.7225C13.1934 87.8213 13.4183 86.7999 13.4783 85.6583ZM13.3884 69.9767C13.3284 69.1356 13.1184 68.3846 12.7586 67.7236C12.6086 67.4383 12.4137 67.1604 12.1737 66.89C11.9488 66.6196 11.6639 66.3793 11.319 66.169C10.9891 65.9587 10.5918 65.786 10.1269 65.6508C9.67705 65.5156 9.15222 65.448 8.55241 65.448C8.07256 65.448 7.54024 65.4931 6.95542 65.5832L7.22534 75.1363H7.72018C8.64988 75.1363 9.43712 75.0162 10.0819 74.7758C10.7267 74.5205 11.259 74.2126 11.6789 73.8521C12.0988 73.4766 12.4212 73.071 12.6461 72.6354C12.886 72.1998 13.0585 71.7942 13.1634 71.4187C13.2684 71.0282 13.3284 70.7052 13.3434 70.4499C13.3734 70.1795 13.3884 70.0218 13.3884 69.9767Z" fill="#3A394F"/>
<path d="M44.3218 79.5299C44.3218 80.8066 44.2768 82.0984 44.1868 83.4052C44.1119 84.712 43.9544 85.9737 43.7145 87.1904C43.4896 88.4071 43.1597 89.5562 42.7248 90.6376C42.305 91.7041 41.7576 92.6354 41.0828 93.4315C40.4081 94.2276 39.5908 94.8509 38.6311 95.3016C37.6714 95.7672 36.5318 96 35.2122 96C33.9526 96 32.858 95.7972 31.9283 95.3917C30.9986 95.0011 30.2038 94.4679 29.5441 93.792C28.8843 93.101 28.3444 92.2899 27.9246 91.3586C27.5197 90.4123 27.1973 89.4059 26.9574 88.3395C26.7175 87.258 26.5525 86.1315 26.4626 84.9598C26.3726 83.7882 26.3276 82.6241 26.3276 81.4675C26.3276 81.1671 26.3276 80.9043 26.3276 80.679C26.3426 80.4536 26.3576 80.2133 26.3726 79.958C26.3876 79.6876 26.4026 79.3722 26.4176 79.0117C26.4476 78.6361 26.4775 78.163 26.5075 77.5922C26.5375 77.0064 26.5675 76.2929 26.5975 75.4518C26.6425 74.5956 26.6875 73.5517 26.7325 72.32C26.7924 71.0883 26.8449 69.6388 26.8899 67.9715C26.9499 66.2892 27.0174 64.3365 27.0923 62.1134L33.8177 62.3613C33.5928 64.6745 33.3828 66.6647 33.1879 68.332C32.9929 69.9843 32.8205 71.4413 32.6706 72.703C32.5206 73.9647 32.3856 75.0763 32.2657 76.0376C32.1457 76.9989 32.0483 77.9302 31.9733 78.8314C31.8983 79.7327 31.8383 80.6564 31.7933 81.6027C31.7633 82.549 31.7483 83.638 31.7483 84.8697C31.7483 87.1679 31.9958 88.9103 32.4906 90.0969C32.9855 91.2835 33.8177 91.8768 34.9873 91.8768C36.2619 91.8768 37.2366 91.1183 37.9114 89.6012C38.6011 88.0691 38.946 85.6658 38.946 82.3913C38.946 78.8164 38.8186 75.3692 38.5637 72.0496C38.3087 68.715 37.9713 65.4255 37.5515 62.181L43.9169 61.9783C43.8869 62.5641 43.8719 63.1424 43.8719 63.7131C43.8719 64.2689 43.8719 64.8322 43.8719 65.403C43.8719 66.9801 43.8944 68.5122 43.9394 69.9993C43.9844 71.4713 44.0369 72.8307 44.0969 74.0774C44.1569 75.3091 44.2093 76.3981 44.2543 77.3444C44.2993 78.2907 44.3218 79.0192 44.3218 79.5299Z" fill="#3A394F"/>
<path d="M70.8242 78.8765C70.8242 81.3248 70.5918 83.4428 70.1269 85.2302C69.677 87.0026 69.0922 88.5197 68.3725 89.7815C67.6527 91.0282 66.843 92.0421 65.9433 92.8231C65.0435 93.6042 64.1438 94.205 63.2441 94.6256C62.3444 95.0612 61.4972 95.3541 60.7024 95.5043C59.9077 95.6696 59.2554 95.7522 58.7456 95.7522C58.6256 95.7522 58.3557 95.7447 57.9358 95.7296C57.531 95.7146 57.0286 95.6771 56.4288 95.617C55.829 95.5719 55.1467 95.4968 54.382 95.3917C53.6322 95.2865 52.845 95.1363 52.0202 94.9411C52.0352 91.967 52.0502 89.3909 52.0652 87.2129C52.0952 85.0199 52.1177 83.1348 52.1327 81.5577C52.1477 79.9805 52.1627 78.6587 52.1777 77.5922C52.1927 76.5257 52.2002 75.6095 52.2002 74.8434C52.2152 74.0774 52.2227 73.424 52.2227 72.8832C52.2377 72.3275 52.2452 71.7867 52.2452 71.261C52.2452 70.4349 52.2377 69.5862 52.2227 68.715C52.2077 67.8288 52.1777 66.9726 52.1327 66.1465C52.0877 65.3203 52.0277 64.5468 51.9528 63.8258C51.8778 63.1048 51.7803 62.489 51.6603 61.9783C52.83 61.9031 53.8946 61.8581 54.8543 61.8431C55.829 61.813 56.6687 61.798 57.3735 61.798C59.1429 61.798 60.7024 62.0158 62.052 62.4514C63.4016 62.872 64.5712 63.4653 65.5609 64.2313C66.5656 64.9824 67.3978 65.8911 68.0576 66.9576C68.7324 68.009 69.2722 69.1656 69.677 70.4274C70.0969 71.6891 70.3893 73.041 70.5543 74.4829C70.7342 75.9099 70.8242 77.3744 70.8242 78.8765ZM64.9761 78.178C64.9761 75.5194 64.8486 73.3564 64.5937 71.6891C64.3538 70.0068 63.9564 68.7 63.4016 67.7687C62.8617 66.8374 62.1495 66.2066 61.2648 65.8761C60.395 65.5306 59.3379 65.3579 58.0933 65.3579H57.4185L57.6884 91.8318C57.9883 91.9519 58.2657 92.0346 58.5206 92.0796C58.7906 92.1097 59.053 92.1247 59.3079 92.1247C60.3126 92.1247 61.1673 91.8919 61.8721 91.4262C62.5918 90.9456 63.1766 90.1645 63.6265 89.083C64.0913 87.9865 64.4287 86.552 64.6387 84.7796C64.8636 82.9921 64.9761 80.7916 64.9761 78.178Z" fill="#3A394F"/>
<path d="M96.7867 78.8765C96.7867 81.3248 96.5543 83.4428 96.0895 85.2302C95.6396 87.0026 95.0548 88.5197 94.335 89.7815C93.6152 91.0282 92.8055 92.0421 91.9058 92.8231C91.0061 93.6042 90.1064 94.205 89.2067 94.6256C88.307 95.0612 87.4597 95.3541 86.665 95.5043C85.8702 95.6696 85.2179 95.7522 84.7081 95.7522C84.5882 95.7522 84.3182 95.7447 83.8984 95.7296C83.4935 95.7146 82.9912 95.6771 82.3914 95.617C81.7915 95.5719 81.1093 95.4968 80.3445 95.3917C79.5948 95.2865 78.8075 95.1363 77.9828 94.9411C77.9978 91.967 78.0128 89.3909 78.0278 87.2129C78.0578 85.0199 78.0802 83.1348 78.0952 81.5577C78.1102 79.9805 78.1252 78.6587 78.1402 77.5922C78.1552 76.5257 78.1627 75.6095 78.1627 74.8434C78.1777 74.0774 78.1852 73.424 78.1852 72.8832C78.2002 72.3275 78.2077 71.7867 78.2077 71.261C78.2077 70.4349 78.2002 69.5862 78.1852 68.715C78.1702 67.8288 78.1402 66.9726 78.0952 66.1465C78.0503 65.3203 77.9903 64.5468 77.9153 63.8258C77.8403 63.1048 77.7429 62.489 77.6229 61.9783C78.7925 61.9031 79.8572 61.8581 80.8169 61.8431C81.7915 61.813 82.6313 61.798 83.3361 61.798C85.1055 61.798 86.665 62.0158 88.0145 62.4514C89.3641 62.872 90.5337 63.4653 91.5234 64.2313C92.5281 64.9824 93.3603 65.8911 94.0201 66.9576C94.6949 68.009 95.2347 69.1656 95.6396 70.4274C96.0595 71.6891 96.3519 73.041 96.5168 74.4829C96.6968 75.9099 96.7867 77.3744 96.7867 78.8765ZM90.9386 78.178C90.9386 75.5194 90.8111 73.3564 90.5562 71.6891C90.3163 70.0068 89.9189 68.7 89.3641 67.7687C88.8243 66.8374 88.112 66.2066 87.2273 65.8761C86.3576 65.5306 85.3004 65.3579 84.0558 65.3579H83.381L83.651 91.8318C83.9509 91.9519 84.2283 92.0346 84.4832 92.0796C84.7531 92.1097 85.0155 92.1247 85.2704 92.1247C86.2751 92.1247 87.1298 91.8919 87.8346 91.4262C88.5544 90.9456 89.1392 90.1645 89.589 89.083C90.0539 87.9865 90.3913 86.552 90.6012 84.7796C90.8261 82.9921 90.9386 80.7916 90.9386 78.178Z" fill="#3A394F"/>
<path d="M120.5 62.2261C119.84 63.9685 119.218 65.7109 118.633 67.4533C118.048 69.1957 117.486 70.9456 116.946 72.703C116.421 74.4604 115.904 76.2253 115.394 77.9978C114.884 79.7702 114.374 81.5426 113.865 83.3151C113.97 85.3278 114.082 87.3256 114.202 89.3083C114.322 91.276 114.487 93.2587 114.697 95.2565L107.837 95.5269C108.032 93.1836 108.174 90.863 108.264 88.5648C108.369 86.2666 108.444 83.9459 108.489 81.6027C107.319 78.2531 106.09 74.9636 104.8 71.7342C103.51 68.4897 102.146 65.2528 100.706 62.0233C101.816 61.9933 102.993 61.9482 104.238 61.8881C105.482 61.813 106.637 61.6929 107.702 61.5276C107.972 62.9095 108.226 64.2914 108.466 65.6733C108.721 67.0552 108.976 68.4446 109.231 69.8416C109.501 71.2235 109.786 72.5978 110.086 73.9647C110.386 75.3316 110.731 76.676 111.121 77.9978C111.765 75.2941 112.343 72.5753 112.852 69.8416C113.362 67.1078 113.812 64.4116 114.202 61.7529C116.271 62.0233 118.371 62.181 120.5 62.2261Z" fill="#3A394F"/>
<path d="M29.9565 27.9277C29.9415 29.8954 29.5667 31.6378 28.8319 33.1549C28.1121 34.657 27.1674 35.9187 25.9978 36.9401C24.8432 37.9615 23.5536 38.7351 22.1291 39.2608C20.7045 39.7865 19.2875 40.0494 17.8779 40.0494H17.4281C17.4281 40.6803 17.4281 41.4313 17.4281 42.3025C17.4431 43.1587 17.4656 44.0975 17.4955 45.1189C17.5255 46.1252 17.563 47.1842 17.608 48.2957C17.668 49.3922 17.743 50.4887 17.8329 51.5852C16.9482 51.4951 16.1385 51.435 15.4037 51.405C14.669 51.375 14.0242 51.3599 13.4693 51.3599C13.1694 51.3599 12.907 51.3599 12.6821 51.3599C12.4572 51.375 12.2697 51.3825 12.1198 51.3825C11.9398 51.3975 11.7899 51.405 11.6699 51.405C11.7449 50.2334 11.8124 49.0618 11.8724 47.8902C11.9323 46.7035 11.9848 45.5469 12.0298 44.4204C12.0748 43.2788 12.1048 42.1823 12.1198 41.1309C12.1498 40.0794 12.1798 39.0881 12.2097 38.1568C12.2547 35.9938 12.2847 33.921 12.2997 31.9382C12.2997 30.0306 12.2847 28.2056 12.2547 26.4632C12.2397 25.7272 12.2247 24.9687 12.2097 24.1876C12.1948 23.4065 12.1723 22.648 12.1423 21.912C12.1273 21.176 12.1048 20.4925 12.0748 19.8616C12.0598 19.2158 12.0298 18.66 11.9848 18.1944C13.1394 17.9841 14.2641 17.8564 15.3587 17.8113C16.4684 17.7512 17.3831 17.7212 18.1029 17.7212C18.6577 17.7212 19.34 17.7437 20.1497 17.7888C20.9594 17.8339 21.7992 17.9615 22.6689 18.1718C23.5536 18.3671 24.4308 18.6825 25.3005 19.1181C26.1703 19.5387 26.95 20.1245 27.6398 20.8755C28.3296 21.6266 28.8844 22.5804 29.3042 23.737C29.7391 24.8785 29.9565 26.2755 29.9565 27.9277ZM24.1534 28.108C24.1534 26.9664 24.0259 25.9901 23.771 25.179C23.5161 24.3528 23.1262 23.6769 22.6014 23.1512C22.0916 22.6254 21.4318 22.2274 20.622 21.957C19.8273 21.6867 18.8826 21.5214 17.788 21.4613C17.728 22.7832 17.6755 24.1726 17.6305 25.6296C17.6005 27.0866 17.5705 28.506 17.5405 29.8879C17.5105 31.2548 17.488 32.5316 17.4731 33.7182C17.4581 34.8898 17.4431 35.8511 17.4281 36.6022C18.5527 36.5421 19.5349 36.2942 20.3746 35.8586C21.2144 35.423 21.9116 34.8372 22.4664 34.1012C23.0363 33.3652 23.4561 32.494 23.726 31.4876C24.011 30.4662 24.1534 29.3397 24.1534 28.108Z" fill="#3A394F"/>
<path d="M108.633 18.8497C108.768 20.6371 108.888 22.5147 108.993 24.4824C109.038 25.3236 109.083 26.2248 109.128 27.1861C109.173 28.1474 109.21 29.1538 109.24 30.2053C109.27 31.2417 109.293 32.3082 109.308 33.4047C109.338 34.4862 109.353 35.5676 109.353 36.6491C109.353 38.767 109.218 40.7798 108.948 42.6874C108.678 44.5951 108.236 46.2774 107.621 47.7344C107.006 49.1914 106.196 50.348 105.192 51.2041C104.187 52.0603 102.95 52.4884 101.48 52.4884C101.45 52.4884 101.315 52.4809 101.075 52.4659C100.851 52.4509 100.558 52.3983 100.198 52.3082C99.8384 52.218 99.4335 52.0753 98.9837 51.8801C98.5488 51.6848 98.1064 51.4069 97.6566 51.0464C97.2067 50.6859 96.7794 50.2278 96.3745 49.672C95.9696 49.1012 95.6322 48.4103 95.3623 47.5992C95.0474 48.3652 94.6725 49.0036 94.2377 49.5143C93.8028 50.025 93.353 50.4531 92.8881 50.7986C92.4233 51.129 91.9509 51.3844 91.4711 51.5646C91.0062 51.7449 90.5864 51.8726 90.2115 51.9477C89.8366 52.0228 89.5217 52.0678 89.2668 52.0828C89.0119 52.0979 88.8619 52.1054 88.8169 52.1054C87.9172 52.1054 87.145 51.8951 86.5002 51.4745C85.8704 51.069 85.3306 50.5057 84.8807 49.7847C84.4458 49.0487 84.1009 48.1925 83.846 47.2162C83.5911 46.2248 83.3887 45.1583 83.2387 44.0168C83.1038 42.8602 83.0138 41.651 82.9688 40.3893C82.9388 39.1275 82.9238 37.8658 82.9238 36.6041C82.9238 35.4625 82.9313 34.3284 82.9463 33.2019C82.9613 32.0603 82.9763 30.9563 82.9913 29.8898C83.0213 28.8234 83.0513 27.802 83.0813 26.8256C83.1263 25.8343 83.1638 24.918 83.1937 24.0769C83.2687 22.0941 83.3587 20.2241 83.4637 18.4666L90.054 18.6469C89.7691 20.3893 89.5142 22.2218 89.2893 24.1444C89.1993 24.9706 89.1093 25.8568 89.0194 26.8031C88.9294 27.7494 88.8469 28.7408 88.7719 29.7772C88.712 30.7986 88.6595 31.8575 88.6145 32.9541C88.5695 34.0355 88.547 35.117 88.547 36.1985C88.547 37.0246 88.547 37.8583 88.547 38.6995C88.562 39.5406 88.5845 40.3592 88.6145 41.1553C88.6595 41.9364 88.7195 42.6724 88.7944 43.3634C88.8694 44.0393 88.9744 44.6401 89.1093 45.1658C89.2593 45.6765 89.4392 46.0821 89.6492 46.3825C89.8741 46.6679 90.1515 46.8106 90.4814 46.8106C90.7963 46.8106 91.0887 46.6153 91.3586 46.2248C91.6435 45.8343 91.8909 45.3236 92.1009 44.6927C92.3258 44.0468 92.5207 43.3258 92.6857 42.5297C92.8656 41.7186 93.0081 40.9075 93.113 40.0964C93.233 39.2702 93.323 38.4741 93.383 37.7081C93.4429 36.942 93.4729 36.2811 93.4729 35.7254C93.4729 35.5451 93.4804 35.3123 93.4954 35.0269C93.4954 34.7716 93.4954 34.4486 93.4954 34.0581C93.5104 33.6525 93.5179 33.1643 93.5179 32.5936C93.5179 31.452 93.5029 29.9124 93.4729 27.9747C93.4429 26.022 93.398 23.5812 93.338 20.6521L99.0511 20.8775C98.9162 23.2958 98.8037 25.3536 98.7137 27.0509C98.6238 28.7483 98.5488 30.1677 98.4888 31.3093C98.4288 32.4358 98.3839 33.3446 98.3539 34.0355C98.3389 34.7115 98.3239 35.2522 98.3089 35.6578C98.3089 36.0483 98.3089 36.3487 98.3089 36.559C98.3089 36.7543 98.3089 36.942 98.3089 37.1223C98.3089 37.7682 98.3314 38.4666 98.3764 39.2177C98.4363 39.9537 98.5188 40.6897 98.6238 41.4257C98.7437 42.1617 98.8862 42.8752 99.0511 43.5661C99.2311 44.2421 99.426 44.8429 99.636 45.3686C99.8609 45.8793 100.108 46.2924 100.378 46.6078C100.663 46.9233 100.971 47.081 101.3 47.081C101.81 47.081 102.215 46.7956 102.515 46.2248C102.83 45.654 103.062 44.8804 103.212 43.9041C103.377 42.9127 103.482 41.7712 103.527 40.4794C103.572 39.1726 103.595 37.7907 103.595 36.3337C103.595 34.0656 103.542 31.9702 103.437 30.0476C103.347 28.1249 103.227 26.4201 103.077 24.933C102.927 23.431 102.77 22.1542 102.605 21.1028C102.455 20.0363 102.328 19.2327 102.223 18.692L108.633 18.8497Z" fill="#3A394F"/>
<path d="M64.7022 8.1806C65.1853 5.06882 63.8556 2.31435 61.7221 2.02488C61.6009 2.00807 61.4787 1.99976 61.3564 2.00001C59.3583 2.00001 57.4552 4.19363 56.9991 7.12676C56.516 10.2385 57.8457 12.993 59.9792 13.2825C60.1011 13.2983 60.223 13.3074 60.3449 13.3074C62.3429 13.3074 64.2506 11.1047 64.7022 8.1806Z" fill="#FF6000"/>
<path d="M49.3072 13.2825C49.1857 13.2983 49.0641 13.3073 48.9403 13.3073C46.9427 13.3065 45.0379 11.1041 44.5775 8.1806C44.0966 5.06882 45.4263 2.31435 47.5575 2.02488C47.6795 2.00905 47.8014 2 47.9255 2C49.9235 2 51.829 4.19363 52.2873 7.12675C52.7682 10.2385 51.4384 12.993 49.3072 13.2825Z" fill="#FF6000"/>
<path d="M72.2111 11.0459C72.526 11.0454 72.8377 11.1085 73.1277 11.2313C74.9632 12.0274 75.5141 15.1143 74.3491 18.1333C73.3648 20.6752 71.4774 22.3532 69.809 22.3532C69.4952 22.3532 69.1837 22.2922 68.8924 22.1678C67.0457 21.3717 66.5061 18.2848 67.6778 15.2658C68.6554 12.742 70.5179 11.073 72.1773 11.0459H72.2111Z" fill="#FF6000"/>
<path d="M41.6064 15.2658C42.7759 18.2803 42.2386 21.3717 40.3963 22.1678C40.1028 22.2922 39.7935 22.3532 39.4775 22.3532C37.8113 22.3532 35.9262 20.6752 34.9419 18.1333C33.7724 15.1188 34.3097 12.0274 36.152 11.2313C36.4455 11.1069 36.7548 11.0459 37.0708 11.0459C38.737 11.0459 40.6221 12.7239 41.6064 15.2658Z" fill="#FF6000"/>
<path d="M54.7129 19.7894C59.1 19.7894 60.2882 21.5426 64.1212 28.4861C65.7313 31.3919 68.2593 33.1938 70.6127 34.8712C73.0574 36.6137 75.3137 38.2219 76.157 40.7937C76.495 41.7156 76.6657 43.1488 76.6657 44.1402C76.6657 48.2346 73.9234 51.0976 70.3935 51.0976C65.2945 51.0976 62.6115 47.7779 60.2913 44.907C58.5238 42.7201 56.9669 40.7937 54.7129 40.7937C52.4317 40.7937 50.7932 42.7668 48.9503 44.9861C46.5816 47.8384 43.8751 51.0976 39.0322 51.0976C35.5023 51.0976 32.76 48.2311 32.76 44.1402C32.753 43.1488 32.9203 41.7156 33.2583 40.7937C34.0951 38.2504 36.205 36.8667 38.5109 35.3545C40.7656 33.8758 43.2078 32.2742 44.8306 29.3453C48.6636 22.4158 50.3258 19.7894 54.7129 19.7894Z" fill="#FF6000"/>
<path d="M64.7022 8.1806C65.1853 5.06882 63.8556 2.31435 61.7221 2.02488C61.6009 2.00807 61.4787 1.99976 61.3564 2.00001C59.3583 2.00001 57.4552 4.19363 56.9991 7.12676C56.516 10.2385 57.8457 12.993 59.9792 13.2825C60.1011 13.2983 60.223 13.3074 60.3449 13.3074C62.3429 13.3074 64.2506 11.1047 64.7022 8.1806Z" stroke="#FF6000" stroke-width="3" stroke-linecap="round" stroke-linejoin="round"/>
<path d="M49.3072 13.2825C49.1857 13.2983 49.0641 13.3073 48.9403 13.3073C46.9427 13.3065 45.0379 11.1041 44.5775 8.1806C44.0966 5.06882 45.4263 2.31435 47.5575 2.02488C47.6795 2.00905 47.8014 2 47.9255 2C49.9235 2 51.829 4.19363 52.2873 7.12675C52.7682 10.2385 51.4384 12.993 49.3072 13.2825Z" stroke="#FF6000" stroke-width="3" stroke-linecap="round" stroke-linejoin="round"/>
<path d="M72.2111 11.0459C72.526 11.0454 72.8377 11.1085 73.1277 11.2313C74.9632 12.0274 75.5141 15.1143 74.3491 18.1333C73.3648 20.6752 71.4774 22.3532 69.809 22.3532C69.4952 22.3532 69.1837 22.2922 68.8924 22.1678C67.0457 21.3717 66.5061 18.2848 67.6778 15.2658C68.6554 12.742 70.5179 11.073 72.1773 11.0459H72.2111Z" stroke="#FF6000" stroke-width="3" stroke-linecap="round" stroke-linejoin="round"/>
<path d="M41.6064 15.2658C42.7759 18.2803 42.2386 21.3717 40.3963 22.1678C40.1028 22.2922 39.7935 22.3532 39.4775 22.3532C37.8113 22.3532 35.9262 20.6752 34.9419 18.1333C33.7724 15.1188 34.3097 12.0274 36.152 11.2313C36.4455 11.1069 36.7548 11.0459 37.0708 11.0459C38.737 11.0459 40.6221 12.7239 41.6064 15.2658Z" stroke="#FF6000" stroke-width="3" stroke-linecap="round" stroke-linejoin="round"/>
<path d="M54.7129 19.7894C59.1 19.7894 60.2882 21.5426 64.1212 28.4861C65.7313 31.3919 68.2593 33.1938 70.6127 34.8712C73.0574 36.6137 75.3137 38.2219 76.157 40.7937C76.495 41.7156 76.6657 43.1488 76.6657 44.1402C76.6657 48.2346 73.9234 51.0976 70.3935 51.0976C65.2945 51.0976 62.6115 47.7779 60.2913 44.907C58.5238 42.7201 56.9669 40.7937 54.7129 40.7937C52.4317 40.7937 50.7932 42.7668 48.9503 44.9861C46.5816 47.8384 43.8751 51.0976 39.0322 51.0976C35.5023 51.0976 32.76 48.2311 32.76 44.1402C32.753 43.1488 32.9203 41.7156 33.2583 40.7937C34.0951 38.2504 36.205 36.8667 38.5109 35.3545C40.7656 33.8758 43.2078 32.2742 44.8306 29.3453C48.6636 22.4158 50.3258 19.7894 54.7129 19.7894Z" stroke="#FF6000" stroke-width="3" stroke-linecap="round" stroke-linejoin="round"/>
<path d="M48.1088 31.6078L50.7255 33.1819V35.9332V38.7114H54.4119H58.0983V37.7091V36.7404L55.0173 36.6395L51.9028 36.5386L51.8019 33.2559L51.7009 30.0068H48.62H45.5391L48.1088 31.6078Z" fill="white"/>
<path d="M58.0996 31.5068C58.0996 32.3477 58.2005 33.0137 58.3687 33.0137C58.5032 33.0137 59.6737 32.3073 60.9518 31.5068L63.2995 30H60.7164H58.0996V31.5068Z" fill="white"/>
</svg>
