<svg width="436" height="264" viewBox="0 0 436 264" fill="none" xmlns="http://www.w3.org/2000/svg">
<g clip-path="url(#clip0_303_8669)">
<path d="M243.513 263.537C338.525 263.537 415.547 240.741 415.547 212.622C415.547 184.502 338.525 161.707 243.513 161.707C148.501 161.707 71.4785 184.502 71.4785 212.622C71.4785 240.741 148.501 263.537 243.513 263.537Z" fill="#DAD9E6"/>
<path d="M79.8672 183.063L144.676 249.275L144.75 144.673L80.2367 122.172L79.8672 183.063Z" fill="#F7F7FC"/>
<path d="M144.676 249.275L363.598 209.407L368.993 107.207L144.75 144.673L144.676 249.275Z" fill="#ECECF2"/>
<path d="M367.365 138.429L144.748 144.673L168.839 199.246L365.998 163.887L367.365 138.429Z" fill="#C6C6D9"/>
<path d="M81.0859 91.7999L144.749 144.673L368.992 107.207L278.172 65.862L81.0859 91.7999Z" fill="#B5B3CD"/>
<path d="M368.992 107.207L435.501 67.3769L338.694 31.0565L278.172 65.862L368.992 107.207Z" fill="#DAD9E6"/>
<path d="M81.0854 91.7999L53.5215 57.7703L252.529 35.675L278.171 65.862L81.0854 91.7999Z" fill="#DAD9E6"/>
<path d="M183.101 184.467L424.821 143.897L368.991 107.207L144.748 144.673L183.101 184.467Z" fill="#DAD9E6"/>
<path d="M144.749 144.673L53.5217 141.754L0.5 76.2815L81.0857 91.7999L144.749 144.673Z" fill="#DAD9E6"/>
<path d="M196.698 53.7429C196.698 53.7429 186.426 27.2508 177.633 16.277C168.839 5.30332 163.851 1.16508 163.851 1.16508C163.851 1.16508 162.705 9.33071 162.853 23.8146C163.001 38.2984 163.444 41.7716 163.112 42.178C162.779 42.5844 152.323 47.0552 145.82 50.085C139.317 53.1517 134.698 56.1815 132.407 56.1076C130.116 56.0337 123.835 51.8955 115.263 46.7227C106.691 41.5499 97.9707 36.2662 97.9707 36.2662C97.9707 36.2662 101.592 46.3901 102.848 52.0802C104.067 57.7703 108.279 74.7297 111.346 83.3018C114.413 91.8739 118.847 100.372 124.537 106.616C130.227 112.861 134.587 116.592 139.538 118.662C144.489 120.731 149.736 122.024 154.207 122.024C158.678 122.024 162.705 123.428 165.92 127.308C169.134 131.187 171.943 139.353 171.943 139.353L243.439 129.414C243.439 129.414 250.053 128.083 256.666 129.155C263.28 130.226 273.441 135.954 281.94 135.584C290.438 135.178 294.28 132.813 295.832 130.855C297.384 128.896 297.495 126.901 297.495 126.901C297.495 126.901 301.818 135.399 302.742 147.518C303.629 159.638 304.109 168.616 306.991 180.07C309.873 191.524 315.489 205.232 325.539 216.871C335.589 228.51 346.748 237.673 355.911 240.961C365.075 244.213 371.799 243.806 377.416 239.964C383.032 236.121 379.669 231.466 378.007 230.69C376.344 229.914 374.571 230.874 371.799 229.803C369.028 228.731 353.14 225.184 344.088 217.167C334.998 209.186 329.197 194.665 326.241 177.114C323.285 159.564 322.214 138.946 322.103 127.603C321.992 116.26 321.992 114.08 323.396 111.9C324.8 109.72 326.833 109.72 328.532 107.171C330.195 104.621 334.37 86.2577 334.148 68.1159C333.964 49.9742 331.303 31.9063 320.921 19.8611C310.575 7.81582 292.027 -0.460661 276.804 0.610849C261.618 1.68236 245.028 5.85755 230.026 16.6835C215.025 27.5094 203.201 42.0302 200.245 46.8705C197.289 51.7107 196.698 53.7429 196.698 53.7429Z" fill="#A3A0C0"/>
<path d="M138.948 89.2505C143.356 89.2505 146.929 85.6112 146.929 81.1218C146.929 76.6325 143.356 72.9931 138.948 72.9931C134.54 72.9931 130.967 76.6325 130.967 81.1218C130.967 85.6112 134.54 89.2505 138.948 89.2505Z" fill="#DAD9E6"/>
<path d="M172.239 71.0718C176.402 71.0718 179.776 67.7468 179.776 63.6451C179.776 59.5435 176.402 56.2185 172.239 56.2185C168.076 56.2185 164.701 59.5435 164.701 63.6451C164.701 67.7468 168.076 71.0718 172.239 71.0718Z" fill="#DAD9E6"/>
<path d="M92.7246 113.526L125.018 98.4877" stroke="#A3A0C0" stroke-width="3" stroke-miterlimit="10" stroke-linecap="round"/>
<path d="M99.3008 120.103C99.3008 120.103 107.91 114.671 112.75 112.306C117.591 109.942 128.084 104.658 128.084 104.658" stroke="#A3A0C0" stroke-width="3" stroke-miterlimit="10" stroke-linecap="round"/>
<path d="M111.348 123.982C111.348 123.982 117.001 117.331 121.361 113.378C125.721 109.424 129.97 106.432 129.97 106.432" stroke="#A3A0C0" stroke-width="3" stroke-miterlimit="10" stroke-linecap="round"/>
<path d="M139.614 86.9597C142.307 86.9597 144.491 84.561 144.491 81.6021C144.491 78.6433 142.307 76.2446 139.614 76.2446C136.92 76.2446 134.736 78.6433 134.736 81.6021C134.736 84.561 136.92 86.9597 139.614 86.9597Z" fill="#A3A0C0"/>
<path d="M173.052 69.2244C175.868 69.2244 178.151 66.9084 178.151 64.0516C178.151 61.1947 175.868 58.8788 173.052 58.8788C170.236 58.8788 167.953 61.1947 167.953 64.0516C167.953 66.9084 170.236 69.2244 173.052 69.2244Z" fill="#A3A0C0"/>
</g>
<defs>
<clipPath id="clip0_303_8669">
<rect width="435" height="263" fill="white" transform="translate(0.5 0.5)"/>
</clipPath>
</defs>
</svg>
