<svg width="24" height="24" viewBox="0 0 24 24" fill="none" xmlns="http://www.w3.org/2000/svg">
<mask id="path-1-inside-1_1334_27230" fill="white">
<path d="M6.00048 12.5L8.23395 7.58624C8.39622 7.22924 8.7519 7.00062 9.14258 6.96681C9.95273 6.89669 11.3219 6.67856 12.0004 6.00003C12.5992 5.40119 13.3774 3.90584 13.9053 2.80245C14.2054 2.17524 15.0364 2.00623 15.5419 2.48365L22.7771 9.31692C23.1771 9.69476 23.1988 10.3221 22.8209 10.7221C20.4398 13.243 12.5596 21.5 11.5004 21.5C10.2503 21.5 6.00021 21.5 3.00033 21.5C0.000460625 21.5 0.500313 16 2.0004 14C3.50049 12 6.00048 12.5 6.00048 12.5Z"/>
</mask>
<path d="M6.00048 12.5L5.70631 13.9709C6.38989 14.1076 7.07757 13.7554 7.36604 13.1207L6.00048 12.5ZM22.7771 9.31692L21.7471 10.4074L22.7771 9.31692ZM22.8209 10.7221L21.7304 9.69212L22.8209 10.7221ZM8.23395 7.58624L6.8684 6.96555L8.23395 7.58624ZM9.14258 6.96681L9.27193 8.46122L9.14258 6.96681ZM15.5419 2.48365L16.5718 1.39313V1.39313L15.5419 2.48365ZM13.9053 2.80245L12.5522 2.15502V2.15502L13.9053 2.80245ZM3.20038 14.9001C3.64809 14.3032 4.23976 14.0674 4.79106 13.9826C5.06904 13.9398 5.31853 13.9397 5.49568 13.9504C5.58287 13.9557 5.64855 13.9634 5.68655 13.9686C5.70544 13.9712 5.7171 13.9731 5.72074 13.9737C5.72255 13.974 5.72232 13.974 5.71996 13.9735C5.71878 13.9733 5.71706 13.973 5.71479 13.9726C5.71365 13.9723 5.71238 13.9721 5.71097 13.9718C5.71026 13.9717 5.70952 13.9715 5.70874 13.9714C5.70835 13.9713 5.70774 13.9712 5.70755 13.9711C5.70693 13.971 5.70631 13.9709 6.00048 12.5C6.29466 11.0292 6.29401 11.029 6.29335 11.0289C6.29312 11.0289 6.29246 11.0287 6.29199 11.0286C6.29106 11.0284 6.29009 11.0283 6.28908 11.0281C6.28706 11.0277 6.28488 11.0272 6.28254 11.0268C6.27785 11.0259 6.27253 11.0249 6.26657 11.0238C6.25465 11.0216 6.24021 11.019 6.22334 11.0161C6.18963 11.0104 6.14611 11.0035 6.09371 10.9963C5.98913 10.982 5.84778 10.9662 5.67716 10.9559C5.33868 10.9354 4.86942 10.9352 4.33489 11.0175C3.26118 11.1827 1.85281 11.6969 0.800428 13.1L3.20038 14.9001ZM14.5119 3.57416L21.7471 10.4074L23.807 8.22641L16.5718 1.39313L14.5119 3.57416ZM21.7304 9.69212C20.5428 10.9494 17.9911 13.6295 15.6089 15.9912C14.4152 17.1746 13.2816 18.2605 12.3906 19.0441C11.9419 19.4388 11.5808 19.7336 11.3188 19.9216C11.1857 20.0171 11.1089 20.0628 11.0792 20.0783C10.991 20.1246 11.1765 20 11.5004 20V23C11.9568 23 12.3279 22.811 12.4726 22.7351C12.676 22.6284 12.8794 22.4942 13.0678 22.359C13.4487 22.0857 13.8957 21.7156 14.3719 21.2968C15.3308 20.4534 16.5147 19.3176 17.721 18.1216C20.139 15.7245 22.7179 13.0157 23.9114 11.7521L21.7304 9.69212ZM11.5004 20C11.498 20 11.4955 20 11.493 20C11.4906 20 11.4881 20 11.4856 20C11.4831 20 11.4806 20 11.4781 20C11.4756 20 11.4731 20 11.4706 20C11.468 20 11.4655 20 11.4629 20C11.4604 20 11.4578 20 11.4552 20C11.4527 20 11.4501 20 11.4475 20C11.4449 20 11.4423 20 11.4396 20C11.437 20 11.4344 20 11.4317 20C11.4291 20 11.4264 20 11.4238 20C11.4211 20 11.4184 20 11.4157 20C11.413 20 11.4103 20 11.4076 20C11.4049 20 11.4022 20 11.3995 20C11.3967 20 11.394 20 11.3912 20C11.3885 20 11.3857 20 11.3829 20C11.3801 20 11.3774 20 11.3746 20C11.3718 20 11.3689 20 11.3661 20C11.3633 20 11.3605 20 11.3576 20C11.3548 20 11.3519 20 11.3491 20C11.3462 20 11.3433 20 11.3404 20C11.3375 20 11.3347 20 11.3317 20C11.3288 20 11.3259 20 11.323 20C11.3201 20 11.3171 20 11.3142 20C11.3112 20 11.3083 20 11.3053 20C11.3023 20 11.2993 20 11.2963 20C11.2933 20 11.2903 20 11.2873 20C11.2843 20 11.2813 20 11.2782 20C11.2752 20 11.2722 20 11.2691 20C11.266 20 11.263 20 11.2599 20C11.2568 20 11.2537 20 11.2506 20C11.2475 20 11.2444 20 11.2413 20C11.2382 20 11.235 20 11.2319 20C11.2288 20 11.2256 20 11.2224 20C11.2193 20 11.2161 20 11.2129 20C11.2097 20 11.2065 20 11.2033 20C11.2001 20 11.1969 20 11.1937 20C11.1905 20 11.1872 20 11.184 20C11.1808 20 11.1775 20 11.1742 20C11.171 20 11.1677 20 11.1644 20C11.1611 20 11.1578 20 11.1545 20C11.1512 20 11.1479 20 11.1446 20C11.1412 20 11.1379 20 11.1346 20C11.1312 20 11.1279 20 11.1245 20C11.1211 20 11.1177 20 11.1144 20C11.111 20 11.1076 20 11.1042 20C11.1008 20 11.0973 20 11.0939 20C11.0905 20 11.087 20 11.0836 20C11.0801 20 11.0767 20 11.0732 20C11.0698 20 11.0663 20 11.0628 20C11.0593 20 11.0558 20 11.0523 20C11.0488 20 11.0453 20 11.0418 20C11.0382 20 11.0347 20 11.0311 20C11.0276 20 11.024 20 11.0205 20C11.0169 20 11.0133 20 11.0098 20C11.0062 20 11.0026 20 10.999 20C10.9954 20 10.9917 20 10.9881 20C10.9845 20 10.9809 20 10.9772 20C10.9736 20 10.9699 20 10.9663 20C10.9626 20 10.9589 20 10.9552 20C10.9516 20 10.9479 20 10.9442 20C10.9405 20 10.9368 20 10.933 20C10.9293 20 10.9256 20 10.9219 20C10.9181 20 10.9144 20 10.9106 20C10.9069 20 10.9031 20 10.8993 20C10.8955 20 10.8917 20 10.8879 20C10.8842 20 10.8803 20 10.8765 20C10.8727 20 10.8689 20 10.8651 20C10.8612 20 10.8574 20 10.8535 20C10.8497 20 10.8458 20 10.842 20C10.8381 20 10.8342 20 10.8303 20C10.8264 20 10.8225 20 10.8186 20C10.8147 20 10.8108 20 10.8069 20C10.8029 20 10.799 20 10.7951 20C10.7911 20 10.7872 20 10.7832 20C10.7793 20 10.7753 20 10.7713 20C10.7673 20 10.7633 20 10.7593 20C10.7553 20 10.7513 20 10.7473 20C10.7433 20 10.7393 20 10.7352 20C10.7312 20 10.7272 20 10.7231 20C10.7191 20 10.715 20 10.7109 20C10.7069 20 10.7028 20 10.6987 20C10.6946 20 10.6905 20 10.6864 20C10.6823 20 10.6782 20 10.6741 20C10.6699 20 10.6658 20 10.6617 20C10.6575 20 10.6534 20 10.6492 20C10.6451 20 10.6409 20 10.6367 20C10.6325 20 10.6283 20 10.6242 20C10.62 20 10.6158 20 10.6115 20C10.6073 20 10.6031 20 10.5989 20C10.5947 20 10.5904 20 10.5862 20C10.5819 20 10.5777 20 10.5734 20C10.5692 20 10.5649 20 10.5606 20C10.5563 20 10.552 20 10.5477 20C10.5435 20 10.5391 20 10.5348 20C10.5305 20 10.5262 20 10.5219 20C10.5175 20 10.5132 20 10.5089 20C10.5045 20 10.5001 20 10.4958 20C10.4914 20 10.487 20 10.4827 20C10.4783 20 10.4739 20 10.4695 20C10.4651 20 10.4607 20 10.4563 20C10.4519 20 10.4475 20 10.443 20C10.4386 20 10.4342 20 10.4297 20C10.4253 20 10.4208 20 10.4163 20C10.4119 20 10.4074 20 10.4029 20C10.3984 20 10.394 20 10.3895 20C10.385 20 10.3805 20 10.376 20C10.3714 20 10.3669 20 10.3624 20C10.3579 20 10.3533 20 10.3488 20C10.3442 20 10.3397 20 10.3351 20C10.3306 20 10.326 20 10.3214 20C10.3168 20 10.3123 20 10.3077 20C10.3031 20 10.2985 20 10.2939 20C10.2893 20 10.2846 20 10.28 20C10.2754 20 10.2708 20 10.2661 20C10.2615 20 10.2568 20 10.2522 20C10.2475 20 10.2429 20 10.2382 20C10.2335 20 10.2289 20 10.2242 20C10.2195 20 10.2148 20 10.2101 20C10.2054 20 10.2007 20 10.196 20C10.1912 20 10.1865 20 10.1818 20C10.1771 20 10.1723 20 10.1676 20C10.1628 20 10.1581 20 10.1533 20C10.1485 20 10.1438 20 10.139 20C10.1342 20 10.1294 20 10.1246 20C10.1198 20 10.115 20 10.1102 20C10.1054 20 10.1006 20 10.0958 20C10.091 20 10.0861 20 10.0813 20C10.0765 20 10.0716 20 10.0668 20C10.0619 20 10.057 20 10.0522 20C10.0473 20 10.0424 20 10.0376 20C10.0327 20 10.0278 20 10.0229 20C10.018 20 10.0131 20 10.0082 20C10.0033 20 9.99835 20 9.99342 20C9.9885 20 9.98356 20 9.97862 20C9.97368 20 9.96874 20 9.96378 20C9.95883 20 9.95387 20 9.9489 20C9.94393 20 9.93895 20 9.93397 20C9.92899 20 9.924 20 9.919 20C9.914 20 9.909 20 9.90399 20C9.89898 20 9.89396 20 9.88893 20C9.88391 20 9.87888 20 9.87384 20C9.8688 20 9.86375 20 9.8587 20C9.85364 20 9.84858 20 9.84352 20C9.83845 20 9.83338 20 9.8283 20C9.82321 20 9.81813 20 9.81303 20C9.80794 20 9.80284 20 9.79773 20C9.79262 20 9.78751 20 9.78238 20C9.77726 20 9.77213 20 9.767 20C9.76186 20 9.75672 20 9.75157 20C9.74642 20 9.74127 20 9.7361 20C9.73094 20 9.72577 20 9.7206 20C9.71542 20 9.71024 20 9.70505 20C9.69986 20 9.69466 20 9.68946 20C9.68426 20 9.67905 20 9.67384 20C9.66862 20 9.6634 20 9.65817 20C9.65294 20 9.64771 20 9.64247 20C9.63722 20 9.63198 20 9.62672 20C9.62147 20 9.61621 20 9.61094 20C9.60567 20 9.6004 20 9.59512 20C9.58984 20 9.58455 20 9.57926 20C9.57396 20 9.56866 20 9.56336 20C9.55805 20 9.55274 20 9.54742 20C9.5421 20 9.53678 20 9.53145 20C9.52612 20 9.52078 20 9.51544 20C9.51009 20 9.50474 20 9.49939 20C9.49403 20 9.48867 20 9.4833 20C9.47793 20 9.47256 20 9.46718 20C9.4618 20 9.45641 20 9.45102 20C9.44562 20 9.44022 20 9.43482 20C9.42941 20 9.424 20 9.41858 20C9.41317 20 9.40774 20 9.40231 20C9.39688 20 9.39145 20 9.38601 20C9.38057 20 9.37512 20 9.36967 20C9.36421 20 9.35875 20 9.35329 20C9.34782 20 9.34235 20 9.33687 20C9.3314 20 9.32591 20 9.32042 20C9.31493 20 9.30944 20 9.30394 20C9.29844 20 9.29293 20 9.28742 20C9.28191 20 9.27639 20 9.27086 20C9.26534 20 9.25981 20 9.25428 20C9.24874 20 9.2432 20 9.23765 20C9.2321 20 9.22655 20 9.22099 20C9.21544 20 9.20987 20 9.2043 20C9.19873 20 9.19316 20 9.18758 20C9.18199 20 9.17641 20 9.17082 20C9.16522 20 9.15963 20 9.15402 20C9.14842 20 9.14281 20 9.1372 20C9.13158 20 9.12596 20 9.12034 20C9.11471 20 9.10908 20 9.10345 20C9.09781 20 9.09217 20 9.08652 20C9.08087 20 9.07522 20 9.06956 20C9.0639 20 9.05824 20 9.05257 20C9.0469 20 9.04123 20 9.03555 20C9.02987 20 9.02418 20 9.01849 20C9.0128 20 9.00711 20 9.00141 20C8.99571 20 8.99 20 8.98429 20C8.97858 20 8.97286 20 8.96714 20C8.96142 20 8.95569 20 8.94996 20C8.94423 20 8.93849 20 8.93275 20C8.92701 20 8.92126 20 8.91551 20C8.90975 20 8.904 20 8.89823 20C8.89247 20 8.8867 20 8.88093 20C8.87516 20 8.86938 20 8.8636 20C8.85781 20 8.85203 20 8.84623 20C8.84044 20 8.83464 20 8.82884 20C8.82304 20 8.81723 20 8.81142 20C8.8056 20 8.79978 20 8.79396 20C8.78814 20 8.78231 20 8.77648 20C8.77065 20 8.76481 20 8.75897 20C8.75313 20 8.74728 20 8.74143 20C8.73558 20 8.72972 20 8.72386 20C8.718 20 8.71213 20 8.70626 20C8.70039 20 8.69451 20 8.68863 20C8.68275 20 8.67687 20 8.67098 20C8.66509 20 8.6592 20 8.6533 20C8.6474 20 8.6415 20 8.63559 20C8.62968 20 8.62377 20 8.61785 20C8.61193 20 8.60601 20 8.60008 20C8.59416 20 8.58823 20 8.58229 20C8.57636 20 8.57042 20 8.56447 20C8.55853 20 8.55258 20 8.54663 20C8.54067 20 8.53472 20 8.52875 20C8.52279 20 8.51682 20 8.51085 20C8.50488 20 8.49891 20 8.49293 20C8.48695 20 8.48096 20 8.47498 20C8.46899 20 8.46299 20 8.457 20C8.451 20 8.445 20 8.43899 20C8.43299 20 8.42698 20 8.42096 20C8.41495 20 8.40893 20 8.40291 20C8.39689 20 8.39086 20 8.38483 20C8.3788 20 8.37276 20 8.36673 20C8.36069 20 8.35464 20 8.3486 20C8.34255 20 8.3365 20 8.33044 20C8.32439 20 8.31833 20 8.31226 20C8.3062 20 8.30013 20 8.29406 20C8.28799 20 8.28191 20 8.27583 20C8.26976 20 8.26367 20 8.25758 20C8.2515 20 8.24541 20 8.23931 20C8.23321 20 8.22712 20 8.22101 20C8.21491 20 8.2088 20 8.20269 20C8.19658 20 8.19047 20 8.18435 20C8.17823 20 8.17211 20 8.16598 20C8.15986 20 8.15373 20 8.14759 20C8.14146 20 8.13532 20 8.12918 20C8.12304 20 8.11689 20 8.11075 20C8.1046 20 8.09845 20 8.09229 20C8.08613 20 8.07997 20 8.07381 20C8.06765 20 8.06148 20 8.05531 20C8.04914 20 8.04297 20 8.03679 20C8.03061 20 8.02443 20 8.01825 20C8.01206 20 8.00587 20 7.99968 20C7.99349 20 7.9873 20 7.9811 20C7.9749 20 7.9687 20 7.96249 20C7.95629 20 7.95008 20 7.94387 20C7.93765 20 7.93144 20 7.92522 20C7.919 20 7.91278 20 7.90655 20C7.90033 20 7.8941 20 7.88786 20C7.88163 20 7.8754 20 7.86916 20C7.86292 20 7.85668 20 7.85043 20C7.84419 20 7.83794 20 7.83169 20C7.82543 20 7.81918 20 7.81292 20C7.80666 20 7.8004 20 7.79414 20C7.78787 20 7.7816 20 7.77533 20C7.76906 20 7.76279 20 7.75651 20C7.75023 20 7.74395 20 7.73767 20C7.73139 20 7.7251 20 7.71881 20C7.71252 20 7.70623 20 7.69993 20C7.69364 20 7.68734 20 7.68104 20C7.67474 20 7.66843 20 7.66213 20C7.65582 20 7.64951 20 7.6432 20C7.63688 20 7.63057 20 7.62425 20C7.61793 20 7.61161 20 7.60529 20C7.59896 20 7.59263 20 7.5863 20C7.57997 20 7.57364 20 7.56731 20C7.56097 20 7.55463 20 7.54829 20C7.54195 20 7.5356 20 7.52926 20C7.52291 20 7.51656 20 7.51021 20C7.50386 20 7.4975 20 7.49115 20C7.48479 20 7.47843 20 7.47207 20C7.46571 20 7.45934 20 7.45297 20C7.4466 20 7.44023 20 7.43386 20C7.42749 20 7.42111 20 7.41474 20C7.40836 20 7.40198 20 7.3956 20C7.38921 20 7.38283 20 7.37644 20C7.37005 20 7.36366 20 7.35727 20C7.35088 20 7.34448 20 7.33808 20C7.33169 20 7.32529 20 7.31888 20C7.31248 20 7.30608 20 7.29967 20C7.29326 20 7.28685 20 7.28044 20C7.27403 20 7.26762 20 7.2612 20C7.25479 20 7.24837 20 7.24195 20C7.23553 20 7.2291 20 7.22268 20C7.21625 20 7.20983 20 7.2034 20C7.19697 20 7.19054 20 7.1841 20C7.17767 20 7.17123 20 7.1648 20C7.15836 20 7.15192 20 7.14548 20C7.13903 20 7.13259 20 7.12614 20C7.1197 20 7.11325 20 7.1068 20C7.10035 20 7.0939 20 7.08744 20C7.08099 20 7.07453 20 7.06807 20C7.06162 20 7.05516 20 7.04869 20C7.04223 20 7.03577 20 7.0293 20C7.02284 20 7.01637 20 7.0099 20C7.00343 20 6.99696 20 6.99049 20C6.98401 20 6.97754 20 6.97106 20C6.96458 20 6.95811 20 6.95163 20C6.94515 20 6.93866 20 6.93218 20C6.9257 20 6.91921 20 6.91272 20C6.90624 20 6.89975 20 6.89326 20C6.88677 20 6.88027 20 6.87378 20C6.86729 20 6.86079 20 6.85429 20C6.8478 20 6.8413 20 6.8348 20C6.8283 20 6.8218 20 6.81529 20C6.80879 20 6.80228 20 6.79578 20C6.78927 20 6.78276 20 6.77625 20C6.76975 20 6.76323 20 6.75672 20C6.75021 20 6.7437 20 6.73718 20C6.73067 20 6.72415 20 6.71763 20C6.71111 20 6.7046 20 6.69807 20C6.69155 20 6.68503 20 6.67851 20C6.67199 20 6.66546 20 6.65894 20C6.65241 20 6.64588 20 6.63935 20C6.63283 20 6.6263 20 6.61977 20C6.61324 20 6.6067 20 6.60017 20C6.59364 20 6.5871 20 6.58057 20C6.57403 20 6.56749 20 6.56096 20C6.55442 20 6.54788 20 6.54134 20C6.5348 20 6.52826 20 6.52172 20C6.51518 20 6.50863 20 6.50209 20C6.49554 20 6.489 20 6.48245 20C6.47591 20 6.46936 20 6.46281 20C6.45626 20 6.44971 20 6.44316 20C6.43661 20 6.43006 20 6.42351 20C6.41696 20 6.41041 20 6.40385 20C6.3973 20 6.39074 20 6.38419 20C6.37763 20 6.37108 20 6.36452 20C6.35796 20 6.3514 20 6.34485 20C6.33829 20 6.33173 20 6.32517 20C6.31861 20 6.31205 20 6.30549 20C6.29892 20 6.29236 20 6.2858 20C6.27924 20 6.27267 20 6.26611 20C6.25954 20 6.25298 20 6.24641 20C6.23985 20 6.23328 20 6.22672 20C6.22015 20 6.21358 20 6.20701 20C6.20045 20 6.19388 20 6.18731 20C6.18074 20 6.17417 20 6.1676 20C6.16103 20 6.15446 20 6.14789 20C6.14132 20 6.13475 20 6.12817 20C6.1216 20 6.11503 20 6.10846 20C6.10189 20 6.09531 20 6.08874 20C6.08217 20 6.07559 20 6.06902 20C6.06244 20 6.05587 20 6.04929 20C6.04272 20 6.03615 20 6.02957 20C6.02299 20 6.01642 20 6.00984 20C6.00327 20 5.99669 20 5.99012 20C5.98354 20 5.97696 20 5.97039 20C5.96381 20 5.95723 20 5.95066 20C5.94408 20 5.9375 20 5.93093 20C5.92435 20 5.91777 20 5.91119 20C5.90462 20 5.89804 20 5.89146 20C5.88489 20 5.87831 20 5.87173 20C5.86515 20 5.85858 20 5.852 20C5.84542 20 5.83884 20 5.83227 20C5.82569 20 5.81911 20 5.81253 20C5.80596 20 5.79938 20 5.7928 20C5.78623 20 5.77965 20 5.77307 20C5.7665 20 5.75992 20 5.75334 20C5.74677 20 5.74019 20 5.73361 20C5.72704 20 5.72046 20 5.71389 20C5.70731 20 5.70073 20 5.69416 20C5.68758 20 5.68101 20 5.67444 20C5.66786 20 5.66129 20 5.65471 20C5.64814 20 5.64157 20 5.63499 20C5.62842 20 5.62185 20 5.61527 20C5.6087 20 5.60213 20 5.59556 20C5.58899 20 5.58242 20 5.57584 20C5.56927 20 5.5627 20 5.55613 20C5.54956 20 5.54299 20 5.53643 20C5.52986 20 5.52329 20 5.51672 20C5.51015 20 5.50359 20 5.49702 20C5.49045 20 5.48389 20 5.47732 20C5.47076 20 5.46419 20 5.45763 20C5.45107 20 5.4445 20 5.43794 20C5.43138 20 5.42481 20 5.41825 20C5.41169 20 5.40513 20 5.39857 20C5.39201 20 5.38545 20 5.37889 20C5.37234 20 5.36578 20 5.35922 20C5.35267 20 5.34611 20 5.33955 20C5.333 20 5.32645 20 5.31989 20C5.31334 20 5.30679 20 5.30023 20C5.29368 20 5.28713 20 5.28058 20C5.27403 20 5.26748 20 5.26094 20C5.25439 20 5.24784 20 5.2413 20C5.23475 20 5.22821 20 5.22166 20C5.21512 20 5.20858 20 5.20203 20C5.19549 20 5.18895 20 5.18241 20C5.17587 20 5.16933 20 5.1628 20C5.15626 20 5.14972 20 5.14319 20C5.13665 20 5.13012 20 5.12359 20C5.11705 20 5.11052 20 5.10399 20C5.09746 20 5.09093 20 5.08441 20C5.07788 20 5.07135 20 5.06483 20C5.0583 20 5.05178 20 5.04525 20C5.03873 20 5.03221 20 5.02569 20C5.01917 20 5.01265 20 5.00613 20C4.99962 20 4.9931 20 4.98659 20C4.98007 20 4.97356 20 4.96705 20C4.96054 20 4.95403 20 4.94752 20C4.94101 20 4.9345 20 4.928 20C4.92149 20 4.91499 20 4.90848 20C4.90198 20 4.89548 20 4.88898 20C4.88248 20 4.87598 20 4.86949 20C4.86299 20 4.8565 20 4.85 20C4.84351 20 4.83702 20 4.83053 20C4.82404 20 4.81755 20 4.81106 20C4.80458 20 4.79809 20 4.79161 20C4.78513 20 4.77865 20 4.77217 20C4.76569 20 4.75921 20 4.75273 20C4.74626 20 4.73978 20 4.73331 20C4.72684 20 4.72037 20 4.7139 20C4.70743 20 4.70096 20 4.6945 20C4.68803 20 4.68157 20 4.67511 20C4.66865 20 4.66219 20 4.65573 20C4.64927 20 4.64282 20 4.63637 20C4.62991 20 4.62346 20 4.61701 20C4.61056 20 4.60412 20 4.59767 20C4.59123 20 4.58478 20 4.57834 20C4.5719 20 4.56546 20 4.55902 20C4.55259 20 4.54615 20 4.53972 20C4.53329 20 4.52686 20 4.52043 20C4.514 20 4.50757 20 4.50115 20C4.49472 20 4.4883 20 4.48188 20C4.47546 20 4.46905 20 4.46263 20C4.45622 20 4.4498 20 4.44339 20C4.43698 20 4.43057 20 4.42417 20C4.41776 20 4.41136 20 4.40496 20C4.39856 20 4.39216 20 4.38576 20C4.37937 20 4.37297 20 4.36658 20C4.36019 20 4.3538 20 4.34741 20C4.34103 20 4.33464 20 4.32826 20C4.32188 20 4.3155 20 4.30912 20C4.30275 20 4.29637 20 4.29 20C4.28363 20 4.27726 20 4.27089 20C4.26453 20 4.25816 20 4.2518 20C4.24544 20 4.23908 20 4.23272 20C4.22637 20 4.22001 20 4.21366 20C4.20731 20 4.20096 20 4.19462 20C4.18827 20 4.18193 20 4.17559 20C4.16925 20 4.16291 20 4.15658 20C4.15025 20 4.14391 20 4.13759 20C4.13126 20 4.12493 20 4.11861 20C4.11228 20 4.10596 20 4.09965 20C4.09333 20 4.08701 20 4.0807 20C4.07439 20 4.06808 20 4.06178 20C4.05547 20 4.04917 20 4.04287 20C4.03657 20 4.03027 20 4.02398 20C4.01768 20 4.01139 20 4.0051 20C3.99882 20 3.99253 20 3.98625 20C3.97997 20 3.97369 20 3.96741 20C3.96114 20 3.95486 20 3.94859 20C3.94233 20 3.93606 20 3.9298 20C3.92353 20 3.91727 20 3.91102 20C3.90476 20 3.8985 20 3.89225 20C3.886 20 3.87976 20 3.87351 20C3.86727 20 3.86103 20 3.85479 20C3.84855 20 3.84232 20 3.83609 20C3.82986 20 3.82363 20 3.8174 20C3.81118 20 3.80496 20 3.79874 20C3.79252 20 3.78631 20 3.7801 20C3.77389 20 3.76768 20 3.76148 20C3.75527 20 3.74907 20 3.74288 20C3.73668 20 3.73049 20 3.7243 20C3.71811 20 3.71192 20 3.70574 20C3.69955 20 3.69337 20 3.6872 20C3.68102 20 3.67485 20 3.66868 20C3.66251 20 3.65635 20 3.65019 20C3.64402 20 3.63787 20 3.63171 20C3.62556 20 3.61941 20 3.61326 20C3.60711 20 3.60097 20 3.59483 20C3.58869 20 3.58256 20 3.57642 20C3.57029 20 3.56416 20 3.55804 20C3.55192 20 3.54579 20 3.53968 20C3.53356 20 3.52745 20 3.52134 20C3.51523 20 3.50912 20 3.50302 20C3.49692 20 3.49082 20 3.48473 20C3.47864 20 3.47255 20 3.46646 20C3.46038 20 3.45429 20 3.44822 20C3.44214 20 3.43606 20 3.43 20C3.42393 20 3.41786 20 3.4118 20C3.40574 20 3.39968 20 3.39362 20C3.38757 20 3.38152 20 3.37548 20C3.36943 20 3.36339 20 3.35735 20C3.35131 20 3.34528 20 3.33925 20C3.33322 20 3.3272 20 3.32118 20C3.31516 20 3.30914 20 3.30313 20C3.29712 20 3.29111 20 3.28511 20C3.2791 20 3.2731 20 3.26711 20C3.26111 20 3.25512 20 3.24914 20C3.24315 20 3.23717 20 3.23119 20C3.22521 20 3.21924 20 3.21327 20C3.2073 20 3.20133 20 3.19537 20C3.18941 20 3.18346 20 3.17751 20C3.17156 20 3.16561 20 3.15967 20C3.15372 20 3.14779 20 3.14185 20C3.13592 20 3.12999 20 3.12407 20C3.11814 20 3.11222 20 3.10631 20C3.10039 20 3.09448 20 3.08857 20C3.08267 20 3.07677 20 3.07087 20C3.06497 20 3.05908 20 3.05319 20C3.04731 20 3.04142 20 3.03555 20C3.02967 20 3.02379 20 3.01793 20C3.01206 20 3.00619 20 3.00033 20V23C3.00619 23 3.01206 23 3.01793 23C3.02379 23 3.02967 23 3.03555 23C3.04142 23 3.04731 23 3.05319 23C3.05908 23 3.06497 23 3.07087 23C3.07677 23 3.08267 23 3.08857 23C3.09448 23 3.10039 23 3.10631 23C3.11222 23 3.11814 23 3.12407 23C3.12999 23 3.13592 23 3.14185 23C3.14779 23 3.15372 23 3.15967 23C3.16561 23 3.17156 23 3.17751 23C3.18346 23 3.18941 23 3.19537 23C3.20133 23 3.2073 23 3.21327 23C3.21924 23 3.22521 23 3.23119 23C3.23717 23 3.24315 23 3.24914 23C3.25512 23 3.26111 23 3.26711 23C3.2731 23 3.2791 23 3.28511 23C3.29111 23 3.29712 23 3.30313 23C3.30914 23 3.31516 23 3.32118 23C3.3272 23 3.33322 23 3.33925 23C3.34528 23 3.35131 23 3.35735 23C3.36339 23 3.36943 23 3.37548 23C3.38152 23 3.38757 23 3.39362 23C3.39968 23 3.40574 23 3.4118 23C3.41786 23 3.42393 23 3.43 23C3.43606 23 3.44214 23 3.44822 23C3.45429 23 3.46038 23 3.46646 23C3.47255 23 3.47864 23 3.48473 23C3.49082 23 3.49692 23 3.50302 23C3.50912 23 3.51523 23 3.52134 23C3.52745 23 3.53356 23 3.53968 23C3.54579 23 3.55192 23 3.55804 23C3.56416 23 3.57029 23 3.57642 23C3.58256 23 3.58869 23 3.59483 23C3.60097 23 3.60711 23 3.61326 23C3.61941 23 3.62556 23 3.63171 23C3.63787 23 3.64402 23 3.65019 23C3.65635 23 3.66251 23 3.66868 23C3.67485 23 3.68102 23 3.6872 23C3.69337 23 3.69955 23 3.70574 23C3.71192 23 3.71811 23 3.7243 23C3.73049 23 3.73668 23 3.74288 23C3.74907 23 3.75527 23 3.76148 23C3.76768 23 3.77389 23 3.7801 23C3.78631 23 3.79252 23 3.79874 23C3.80496 23 3.81118 23 3.8174 23C3.82363 23 3.82986 23 3.83609 23C3.84232 23 3.84855 23 3.85479 23C3.86103 23 3.86727 23 3.87351 23C3.87976 23 3.886 23 3.89225 23C3.8985 23 3.90476 23 3.91102 23C3.91727 23 3.92353 23 3.9298 23C3.93606 23 3.94233 23 3.94859 23C3.95486 23 3.96114 23 3.96741 23C3.97369 23 3.97997 23 3.98625 23C3.99253 23 3.99882 23 4.0051 23C4.01139 23 4.01768 23 4.02398 23C4.03027 23 4.03657 23 4.04287 23C4.04917 23 4.05547 23 4.06178 23C4.06808 23 4.07439 23 4.0807 23C4.08701 23 4.09333 23 4.09965 23C4.10596 23 4.11228 23 4.11861 23C4.12493 23 4.13126 23 4.13759 23C4.14391 23 4.15025 23 4.15658 23C4.16291 23 4.16925 23 4.17559 23C4.18193 23 4.18827 23 4.19462 23C4.20096 23 4.20731 23 4.21366 23C4.22001 23 4.22637 23 4.23272 23C4.23908 23 4.24544 23 4.2518 23C4.25816 23 4.26453 23 4.27089 23C4.27726 23 4.28363 23 4.29 23C4.29637 23 4.30275 23 4.30912 23C4.3155 23 4.32188 23 4.32826 23C4.33464 23 4.34103 23 4.34741 23C4.3538 23 4.36019 23 4.36658 23C4.37297 23 4.37937 23 4.38576 23C4.39216 23 4.39856 23 4.40496 23C4.41136 23 4.41776 23 4.42417 23C4.43057 23 4.43698 23 4.44339 23C4.4498 23 4.45622 23 4.46263 23C4.46905 23 4.47546 23 4.48188 23C4.4883 23 4.49472 23 4.50115 23C4.50757 23 4.514 23 4.52043 23C4.52686 23 4.53329 23 4.53972 23C4.54615 23 4.55259 23 4.55902 23C4.56546 23 4.5719 23 4.57834 23C4.58478 23 4.59123 23 4.59767 23C4.60412 23 4.61056 23 4.61701 23C4.62346 23 4.62991 23 4.63637 23C4.64282 23 4.64927 23 4.65573 23C4.66219 23 4.66865 23 4.67511 23C4.68157 23 4.68803 23 4.6945 23C4.70096 23 4.70743 23 4.7139 23C4.72037 23 4.72684 23 4.73331 23C4.73978 23 4.74626 23 4.75273 23C4.75921 23 4.76569 23 4.77217 23C4.77865 23 4.78513 23 4.79161 23C4.79809 23 4.80458 23 4.81106 23C4.81755 23 4.82404 23 4.83053 23C4.83702 23 4.84351 23 4.85 23C4.8565 23 4.86299 23 4.86949 23C4.87598 23 4.88248 23 4.88898 23C4.89548 23 4.90198 23 4.90848 23C4.91499 23 4.92149 23 4.928 23C4.9345 23 4.94101 23 4.94752 23C4.95403 23 4.96054 23 4.96705 23C4.97356 23 4.98007 23 4.98659 23C4.9931 23 4.99962 23 5.00613 23C5.01265 23 5.01917 23 5.02569 23C5.03221 23 5.03873 23 5.04525 23C5.05178 23 5.0583 23 5.06483 23C5.07135 23 5.07788 23 5.08441 23C5.09093 23 5.09746 23 5.10399 23C5.11052 23 5.11705 23 5.12359 23C5.13012 23 5.13665 23 5.14319 23C5.14972 23 5.15626 23 5.1628 23C5.16933 23 5.17587 23 5.18241 23C5.18895 23 5.19549 23 5.20203 23C5.20858 23 5.21512 23 5.22166 23C5.22821 23 5.23475 23 5.2413 23C5.24784 23 5.25439 23 5.26094 23C5.26748 23 5.27403 23 5.28058 23C5.28713 23 5.29368 23 5.30023 23C5.30679 23 5.31334 23 5.31989 23C5.32645 23 5.333 23 5.33955 23C5.34611 23 5.35267 23 5.35922 23C5.36578 23 5.37234 23 5.37889 23C5.38545 23 5.39201 23 5.39857 23C5.40513 23 5.41169 23 5.41825 23C5.42481 23 5.43138 23 5.43794 23C5.4445 23 5.45107 23 5.45763 23C5.46419 23 5.47076 23 5.47732 23C5.48389 23 5.49045 23 5.49702 23C5.50359 23 5.51015 23 5.51672 23C5.52329 23 5.52986 23 5.53643 23C5.54299 23 5.54956 23 5.55613 23C5.5627 23 5.56927 23 5.57584 23C5.58242 23 5.58899 23 5.59556 23C5.60213 23 5.6087 23 5.61527 23C5.62185 23 5.62842 23 5.63499 23C5.64157 23 5.64814 23 5.65471 23C5.66129 23 5.66786 23 5.67444 23C5.68101 23 5.68758 23 5.69416 23C5.70073 23 5.70731 23 5.71389 23C5.72046 23 5.72704 23 5.73361 23C5.74019 23 5.74677 23 5.75334 23C5.75992 23 5.7665 23 5.77307 23C5.77965 23 5.78623 23 5.7928 23C5.79938 23 5.80596 23 5.81253 23C5.81911 23 5.82569 23 5.83227 23C5.83884 23 5.84542 23 5.852 23C5.85858 23 5.86515 23 5.87173 23C5.87831 23 5.88489 23 5.89146 23C5.89804 23 5.90462 23 5.91119 23C5.91777 23 5.92435 23 5.93093 23C5.9375 23 5.94408 23 5.95066 23C5.95723 23 5.96381 23 5.97039 23C5.97696 23 5.98354 23 5.99012 23C5.99669 23 6.00327 23 6.00984 23C6.01642 23 6.02299 23 6.02957 23C6.03615 23 6.04272 23 6.04929 23C6.05587 23 6.06244 23 6.06902 23C6.07559 23 6.08217 23 6.08874 23C6.09531 23 6.10189 23 6.10846 23C6.11503 23 6.1216 23 6.12817 23C6.13475 23 6.14132 23 6.14789 23C6.15446 23 6.16103 23 6.1676 23C6.17417 23 6.18074 23 6.18731 23C6.19388 23 6.20045 23 6.20701 23C6.21358 23 6.22015 23 6.22672 23C6.23328 23 6.23985 23 6.24641 23C6.25298 23 6.25954 23 6.26611 23C6.27267 23 6.27924 23 6.2858 23C6.29236 23 6.29892 23 6.30549 23C6.31205 23 6.31861 23 6.32517 23C6.33173 23 6.33829 23 6.34485 23C6.3514 23 6.35796 23 6.36452 23C6.37108 23 6.37763 23 6.38419 23C6.39074 23 6.3973 23 6.40385 23C6.41041 23 6.41696 23 6.42351 23C6.43006 23 6.43661 23 6.44316 23C6.44971 23 6.45626 23 6.46281 23C6.46936 23 6.47591 23 6.48245 23C6.489 23 6.49554 23 6.50209 23C6.50863 23 6.51518 23 6.52172 23C6.52826 23 6.5348 23 6.54134 23C6.54788 23 6.55442 23 6.56096 23C6.56749 23 6.57403 23 6.58057 23C6.5871 23 6.59364 23 6.60017 23C6.6067 23 6.61324 23 6.61977 23C6.6263 23 6.63283 23 6.63935 23C6.64588 23 6.65241 23 6.65894 23C6.66546 23 6.67199 23 6.67851 23C6.68503 23 6.69155 23 6.69807 23C6.7046 23 6.71111 23 6.71763 23C6.72415 23 6.73067 23 6.73718 23C6.7437 23 6.75021 23 6.75672 23C6.76323 23 6.76975 23 6.77625 23C6.78276 23 6.78927 23 6.79578 23C6.80228 23 6.80879 23 6.81529 23C6.8218 23 6.8283 23 6.8348 23C6.8413 23 6.8478 23 6.85429 23C6.86079 23 6.86729 23 6.87378 23C6.88027 23 6.88677 23 6.89326 23C6.89975 23 6.90624 23 6.91272 23C6.91921 23 6.9257 23 6.93218 23C6.93866 23 6.94515 23 6.95163 23C6.95811 23 6.96458 23 6.97106 23C6.97754 23 6.98401 23 6.99049 23C6.99696 23 7.00343 23 7.0099 23C7.01637 23 7.02284 23 7.0293 23C7.03577 23 7.04223 23 7.04869 23C7.05516 23 7.06162 23 7.06807 23C7.07453 23 7.08099 23 7.08744 23C7.0939 23 7.10035 23 7.1068 23C7.11325 23 7.1197 23 7.12614 23C7.13259 23 7.13903 23 7.14548 23C7.15192 23 7.15836 23 7.1648 23C7.17123 23 7.17767 23 7.1841 23C7.19054 23 7.19697 23 7.2034 23C7.20983 23 7.21625 23 7.22268 23C7.2291 23 7.23553 23 7.24195 23C7.24837 23 7.25479 23 7.2612 23C7.26762 23 7.27403 23 7.28044 23C7.28685 23 7.29326 23 7.29967 23C7.30608 23 7.31248 23 7.31888 23C7.32529 23 7.33169 23 7.33808 23C7.34448 23 7.35088 23 7.35727 23C7.36366 23 7.37005 23 7.37644 23C7.38283 23 7.38921 23 7.3956 23C7.40198 23 7.40836 23 7.41474 23C7.42111 23 7.42749 23 7.43386 23C7.44023 23 7.4466 23 7.45297 23C7.45934 23 7.46571 23 7.47207 23C7.47843 23 7.48479 23 7.49115 23C7.4975 23 7.50386 23 7.51021 23C7.51656 23 7.52291 23 7.52926 23C7.5356 23 7.54195 23 7.54829 23C7.55463 23 7.56097 23 7.56731 23C7.57364 23 7.57997 23 7.5863 23C7.59263 23 7.59896 23 7.60529 23C7.61161 23 7.61793 23 7.62425 23C7.63057 23 7.63688 23 7.6432 23C7.64951 23 7.65582 23 7.66213 23C7.66843 23 7.67474 23 7.68104 23C7.68734 23 7.69364 23 7.69993 23C7.70623 23 7.71252 23 7.71881 23C7.7251 23 7.73139 23 7.73767 23C7.74395 23 7.75023 23 7.75651 23C7.76279 23 7.76906 23 7.77533 23C7.7816 23 7.78787 23 7.79414 23C7.8004 23 7.80666 23 7.81292 23C7.81918 23 7.82543 23 7.83169 23C7.83794 23 7.84419 23 7.85043 23C7.85668 23 7.86292 23 7.86916 23C7.8754 23 7.88163 23 7.88786 23C7.8941 23 7.90033 23 7.90655 23C7.91278 23 7.919 23 7.92522 23C7.93144 23 7.93765 23 7.94387 23C7.95008 23 7.95629 23 7.96249 23C7.9687 23 7.9749 23 7.9811 23C7.9873 23 7.99349 23 7.99968 23C8.00587 23 8.01206 23 8.01825 23C8.02443 23 8.03061 23 8.03679 23C8.04297 23 8.04914 23 8.05531 23C8.06148 23 8.06765 23 8.07381 23C8.07997 23 8.08613 23 8.09229 23C8.09845 23 8.1046 23 8.11075 23C8.11689 23 8.12304 23 8.12918 23C8.13532 23 8.14146 23 8.14759 23C8.15373 23 8.15986 23 8.16598 23C8.17211 23 8.17823 23 8.18435 23C8.19047 23 8.19658 23 8.20269 23C8.2088 23 8.21491 23 8.22101 23C8.22712 23 8.23321 23 8.23931 23C8.24541 23 8.2515 23 8.25758 23C8.26367 23 8.26976 23 8.27583 23C8.28191 23 8.28799 23 8.29406 23C8.30013 23 8.3062 23 8.31226 23C8.31833 23 8.32439 23 8.33044 23C8.3365 23 8.34255 23 8.3486 23C8.35464 23 8.36069 23 8.36673 23C8.37276 23 8.3788 23 8.38483 23C8.39086 23 8.39689 23 8.40291 23C8.40893 23 8.41495 23 8.42096 23C8.42698 23 8.43299 23 8.43899 23C8.445 23 8.451 23 8.457 23C8.46299 23 8.46899 23 8.47498 23C8.48096 23 8.48695 23 8.49293 23C8.49891 23 8.50488 23 8.51085 23C8.51682 23 8.52279 23 8.52875 23C8.53472 23 8.54067 23 8.54663 23C8.55258 23 8.55853 23 8.56447 23C8.57042 23 8.57636 23 8.58229 23C8.58823 23 8.59416 23 8.60008 23C8.60601 23 8.61193 23 8.61785 23C8.62377 23 8.62968 23 8.63559 23C8.6415 23 8.6474 23 8.6533 23C8.6592 23 8.66509 23 8.67098 23C8.67687 23 8.68275 23 8.68863 23C8.69451 23 8.70039 23 8.70626 23C8.71213 23 8.718 23 8.72386 23C8.72972 23 8.73558 23 8.74143 23C8.74728 23 8.75313 23 8.75897 23C8.76481 23 8.77065 23 8.77648 23C8.78231 23 8.78814 23 8.79396 23C8.79978 23 8.8056 23 8.81142 23C8.81723 23 8.82304 23 8.82884 23C8.83464 23 8.84044 23 8.84623 23C8.85203 23 8.85781 23 8.8636 23C8.86938 23 8.87516 23 8.88093 23C8.8867 23 8.89247 23 8.89823 23C8.904 23 8.90975 23 8.91551 23C8.92126 23 8.92701 23 8.93275 23C8.93849 23 8.94423 23 8.94996 23C8.95569 23 8.96142 23 8.96714 23C8.97286 23 8.97858 23 8.98429 23C8.99 23 8.99571 23 9.00141 23C9.00711 23 9.0128 23 9.01849 23C9.02418 23 9.02987 23 9.03555 23C9.04123 23 9.0469 23 9.05257 23C9.05824 23 9.0639 23 9.06956 23C9.07522 23 9.08087 23 9.08652 23C9.09217 23 9.09781 23 9.10345 23C9.10908 23 9.11471 23 9.12034 23C9.12596 23 9.13158 23 9.1372 23C9.14281 23 9.14842 23 9.15402 23C9.15963 23 9.16522 23 9.17082 23C9.17641 23 9.18199 23 9.18758 23C9.19316 23 9.19873 23 9.2043 23C9.20987 23 9.21544 23 9.22099 23C9.22655 23 9.2321 23 9.23765 23C9.2432 23 9.24874 23 9.25428 23C9.25981 23 9.26534 23 9.27086 23C9.27639 23 9.28191 23 9.28742 23C9.29293 23 9.29844 23 9.30394 23C9.30944 23 9.31493 23 9.32042 23C9.32591 23 9.3314 23 9.33687 23C9.34235 23 9.34782 23 9.35329 23C9.35875 23 9.36421 23 9.36967 23C9.37512 23 9.38057 23 9.38601 23C9.39145 23 9.39688 23 9.40231 23C9.40774 23 9.41317 23 9.41858 23C9.424 23 9.42941 23 9.43482 23C9.44022 23 9.44562 23 9.45102 23C9.45641 23 9.4618 23 9.46718 23C9.47256 23 9.47793 23 9.4833 23C9.48867 23 9.49403 23 9.49939 23C9.50474 23 9.51009 23 9.51544 23C9.52078 23 9.52612 23 9.53145 23C9.53678 23 9.5421 23 9.54742 23C9.55274 23 9.55805 23 9.56336 23C9.56866 23 9.57396 23 9.57926 23C9.58455 23 9.58984 23 9.59512 23C9.6004 23 9.60567 23 9.61094 23C9.61621 23 9.62147 23 9.62672 23C9.63198 23 9.63722 23 9.64247 23C9.64771 23 9.65294 23 9.65817 23C9.6634 23 9.66862 23 9.67384 23C9.67905 23 9.68426 23 9.68946 23C9.69466 23 9.69986 23 9.70505 23C9.71024 23 9.71542 23 9.7206 23C9.72577 23 9.73094 23 9.7361 23C9.74127 23 9.74642 23 9.75157 23C9.75672 23 9.76186 23 9.767 23C9.77213 23 9.77726 23 9.78238 23C9.78751 23 9.79262 23 9.79773 23C9.80284 23 9.80794 23 9.81303 23C9.81813 23 9.82321 23 9.8283 23C9.83338 23 9.83845 23 9.84352 23C9.84858 23 9.85364 23 9.8587 23C9.86375 23 9.8688 23 9.87384 23C9.87888 23 9.88391 23 9.88893 23C9.89396 23 9.89898 23 9.90399 23C9.909 23 9.914 23 9.919 23C9.924 23 9.92899 23 9.93397 23C9.93895 23 9.94393 23 9.9489 23C9.95387 23 9.95883 23 9.96378 23C9.96874 23 9.97368 23 9.97862 23C9.98356 23 9.9885 23 9.99342 23C9.99835 23 10.0033 23 10.0082 23C10.0131 23 10.018 23 10.0229 23C10.0278 23 10.0327 23 10.0376 23C10.0424 23 10.0473 23 10.0522 23C10.057 23 10.0619 23 10.0668 23C10.0716 23 10.0765 23 10.0813 23C10.0861 23 10.091 23 10.0958 23C10.1006 23 10.1054 23 10.1102 23C10.115 23 10.1198 23 10.1246 23C10.1294 23 10.1342 23 10.139 23C10.1438 23 10.1485 23 10.1533 23C10.1581 23 10.1628 23 10.1676 23C10.1723 23 10.1771 23 10.1818 23C10.1865 23 10.1912 23 10.196 23C10.2007 23 10.2054 23 10.2101 23C10.2148 23 10.2195 23 10.2242 23C10.2289 23 10.2335 23 10.2382 23C10.2429 23 10.2475 23 10.2522 23C10.2568 23 10.2615 23 10.2661 23C10.2708 23 10.2754 23 10.28 23C10.2846 23 10.2893 23 10.2939 23C10.2985 23 10.3031 23 10.3077 23C10.3123 23 10.3168 23 10.3214 23C10.326 23 10.3306 23 10.3351 23C10.3397 23 10.3442 23 10.3488 23C10.3533 23 10.3579 23 10.3624 23C10.3669 23 10.3714 23 10.376 23C10.3805 23 10.385 23 10.3895 23C10.394 23 10.3984 23 10.4029 23C10.4074 23 10.4119 23 10.4163 23C10.4208 23 10.4253 23 10.4297 23C10.4342 23 10.4386 23 10.443 23C10.4475 23 10.4519 23 10.4563 23C10.4607 23 10.4651 23 10.4695 23C10.4739 23 10.4783 23 10.4827 23C10.487 23 10.4914 23 10.4958 23C10.5001 23 10.5045 23 10.5089 23C10.5132 23 10.5175 23 10.5219 23C10.5262 23 10.5305 23 10.5348 23C10.5391 23 10.5435 23 10.5477 23C10.552 23 10.5563 23 10.5606 23C10.5649 23 10.5692 23 10.5734 23C10.5777 23 10.5819 23 10.5862 23C10.5904 23 10.5947 23 10.5989 23C10.6031 23 10.6073 23 10.6115 23C10.6158 23 10.62 23 10.6242 23C10.6283 23 10.6325 23 10.6367 23C10.6409 23 10.6451 23 10.6492 23C10.6534 23 10.6575 23 10.6617 23C10.6658 23 10.6699 23 10.6741 23C10.6782 23 10.6823 23 10.6864 23C10.6905 23 10.6946 23 10.6987 23C10.7028 23 10.7069 23 10.7109 23C10.715 23 10.7191 23 10.7231 23C10.7272 23 10.7312 23 10.7352 23C10.7393 23 10.7433 23 10.7473 23C10.7513 23 10.7553 23 10.7593 23C10.7633 23 10.7673 23 10.7713 23C10.7753 23 10.7793 23 10.7832 23C10.7872 23 10.7911 23 10.7951 23C10.799 23 10.8029 23 10.8069 23C10.8108 23 10.8147 23 10.8186 23C10.8225 23 10.8264 23 10.8303 23C10.8342 23 10.8381 23 10.842 23C10.8458 23 10.8497 23 10.8535 23C10.8574 23 10.8612 23 10.8651 23C10.8689 23 10.8727 23 10.8765 23C10.8803 23 10.8842 23 10.8879 23C10.8917 23 10.8955 23 10.8993 23C10.9031 23 10.9069 23 10.9106 23C10.9144 23 10.9181 23 10.9219 23C10.9256 23 10.9293 23 10.933 23C10.9368 23 10.9405 23 10.9442 23C10.9479 23 10.9516 23 10.9552 23C10.9589 23 10.9626 23 10.9663 23C10.9699 23 10.9736 23 10.9772 23C10.9809 23 10.9845 23 10.9881 23C10.9917 23 10.9954 23 10.999 23C11.0026 23 11.0062 23 11.0098 23C11.0133 23 11.0169 23 11.0205 23C11.024 23 11.0276 23 11.0311 23C11.0347 23 11.0382 23 11.0418 23C11.0453 23 11.0488 23 11.0523 23C11.0558 23 11.0593 23 11.0628 23C11.0663 23 11.0698 23 11.0732 23C11.0767 23 11.0801 23 11.0836 23C11.087 23 11.0905 23 11.0939 23C11.0973 23 11.1008 23 11.1042 23C11.1076 23 11.111 23 11.1144 23C11.1177 23 11.1211 23 11.1245 23C11.1279 23 11.1312 23 11.1346 23C11.1379 23 11.1412 23 11.1446 23C11.1479 23 11.1512 23 11.1545 23C11.1578 23 11.1611 23 11.1644 23C11.1677 23 11.171 23 11.1742 23C11.1775 23 11.1808 23 11.184 23C11.1872 23 11.1905 23 11.1937 23C11.1969 23 11.2001 23 11.2033 23C11.2065 23 11.2097 23 11.2129 23C11.2161 23 11.2193 23 11.2224 23C11.2256 23 11.2288 23 11.2319 23C11.235 23 11.2382 23 11.2413 23C11.2444 23 11.2475 23 11.2506 23C11.2537 23 11.2568 23 11.2599 23C11.263 23 11.266 23 11.2691 23C11.2722 23 11.2752 23 11.2782 23C11.2813 23 11.2843 23 11.2873 23C11.2903 23 11.2933 23 11.2963 23C11.2993 23 11.3023 23 11.3053 23C11.3083 23 11.3112 23 11.3142 23C11.3171 23 11.3201 23 11.323 23C11.3259 23 11.3288 23 11.3317 23C11.3347 23 11.3375 23 11.3404 23C11.3433 23 11.3462 23 11.3491 23C11.3519 23 11.3548 23 11.3576 23C11.3605 23 11.3633 23 11.3661 23C11.3689 23 11.3718 23 11.3746 23C11.3774 23 11.3801 23 11.3829 23C11.3857 23 11.3885 23 11.3912 23C11.394 23 11.3967 23 11.3995 23C11.4022 23 11.4049 23 11.4076 23C11.4103 23 11.413 23 11.4157 23C11.4184 23 11.4211 23 11.4238 23C11.4264 23 11.4291 23 11.4317 23C11.4344 23 11.437 23 11.4396 23C11.4423 23 11.4449 23 11.4475 23C11.4501 23 11.4527 23 11.4552 23C11.4578 23 11.4604 23 11.4629 23C11.4655 23 11.468 23 11.4706 23C11.4731 23 11.4756 23 11.4781 23C11.4806 23 11.4831 23 11.4856 23C11.4881 23 11.4906 23 11.493 23C11.4955 23 11.498 23 11.5004 23V20ZM7.36604 13.1207L9.59951 8.20693L6.8684 6.96555L4.63492 11.8793L7.36604 13.1207ZM9.27193 8.46122C9.7273 8.42181 10.3736 8.33871 11.0257 8.1559C11.6443 7.98251 12.4512 7.67053 13.0611 7.06069L10.9397 4.93937C10.8711 5.00806 10.6542 5.14441 10.216 5.26725C9.81137 5.38067 9.36802 5.44169 9.01324 5.4724L9.27193 8.46122ZM13.0611 7.06069C13.5145 6.60723 13.9425 5.92818 14.2817 5.33495C14.6424 4.70392 14.9866 4.01802 15.2584 3.44988L12.5522 2.15502C12.2961 2.69027 11.9872 3.30374 11.6773 3.84595C11.3457 4.42594 11.0851 4.79399 10.9397 4.93937L13.0611 7.06069ZM3.00033 20C2.80253 20 2.72827 19.9522 2.62935 19.7983C2.47908 19.5645 2.33765 19.115 2.31177 18.4424C2.25871 17.0629 2.70922 15.5549 3.20038 14.9001L0.800428 13.1C-0.208503 14.4452 -0.757966 16.6871 -0.686009 18.5577C-0.649375 19.51 -0.447051 20.5605 0.1058 21.4205C0.709987 22.3604 1.6982 23 3.00033 23V20ZM21.7471 10.4074C21.5525 10.2236 21.5323 9.9019 21.7304 9.69212L23.9114 11.7521C24.8652 10.7423 24.8018 9.16593 23.807 8.22641L21.7471 10.4074ZM9.59951 8.20693C9.51474 8.39343 9.36328 8.45331 9.27193 8.46122L9.01324 5.4724C8.14052 5.54793 7.2777 6.06504 6.8684 6.96555L9.59951 8.20693ZM16.5718 1.39313C15.2992 0.191231 13.2745 0.645502 12.5522 2.15502L15.2584 3.44988C15.1364 3.70498 14.7735 3.82122 14.5119 3.57416L16.5718 1.39313Z" fill="#82C43C" mask="url(#path-1-inside-1_1334_27230)"/>
<path d="M20.5002 8.5L10.793 18.2071C10.6054 18.3946 10.3535 18.5 10.0883 18.5H2" stroke="#82C43C" stroke-width="1.5"/>
<path d="M17.5 19.5L22.5 19.5" stroke="#82C43C" stroke-width="1.5" stroke-linecap="round"/>
<path d="M20.5 17L22.5 17" stroke="#82C43C" stroke-width="1.5" stroke-linecap="round"/>
<path d="M7 9L10 10" stroke="#82C43C" stroke-width="1.5" stroke-linecap="round"/>
<path d="M6 11L9 12" stroke="#82C43C" stroke-width="1.5" stroke-linecap="round"/>
</svg>
