<svg width="168" height="169" viewBox="0 0 168 169" fill="none" xmlns="http://www.w3.org/2000/svg">
<circle opacity="0.88" cx="84" cy="84.5" r="83.5" stroke="#ECECF2"/>
<path d="M138.388 83.8794C138.388 115.071 113.629 140.357 83.0873 140.357C52.5453 140.357 27.7861 115.071 27.7861 83.8794C27.7861 52.6876 52.5453 27.4016 83.0873 27.4016C113.629 27.4016 138.388 52.6876 138.388 83.8794Z" fill="#F2E6FF"/>
<g clip-path="url(#clip0_880_4293)">
<path d="M132.024 110.397C133.401 110.515 134.021 110.995 134.021 110.995C134.021 110.995 136.925 109.491 138.45 110.33C139.976 111.169 140.352 115.746 137.715 117.275C137.266 117.534 136.864 119.153 136.533 120.485C136.312 121.378 136.122 122.142 135.971 122.285C135.78 122.468 133.13 122.393 130.568 122.274L136.074 122.715C137.575 128.748 136.351 136.26 134.634 141.456C132.918 146.653 133.273 155.203 133.273 155.203L133.866 156.005C134.318 156.621 134.54 157.375 134.495 158.138C134.455 158.757 133.948 159.239 133.331 159.245L131.788 159.258C130.846 159.264 129.986 158.715 129.6 157.851L129.396 157.393C129.22 157 129.156 156.566 129.211 156.139C129.375 154.87 129.682 151.889 129.433 148.712C129.105 144.511 129.33 141.243 129.33 141.243L125.978 142.085C125.747 142.936 126.273 146.369 126.68 148.719C126.932 150.177 126.522 151.669 125.559 152.789L123.198 155.529C122.557 156.274 121.415 156.298 120.743 155.584C120.087 154.885 119.993 153.829 120.513 153.024L121.588 151.361C122.041 150.659 122.111 149.777 121.773 149.015C120.616 146.39 119.486 142.399 119.486 142.399C117.463 142.491 114.653 141.738 112.457 141.009C112.113 142.931 110.979 146.574 107.254 148.786C107.254 148.786 105.649 150.62 106.531 155.236C106.546 155.322 107.108 155.724 107.633 156.084C108.217 156.484 108.581 157.131 108.624 157.839C108.669 158.62 108.059 159.282 107.281 159.3L105.965 159.331C105.093 159.352 104.285 158.889 103.857 158.126L103.207 156.966C103 156.594 102.9 156.176 102.918 155.749C103.002 153.905 103.168 148.644 102.395 147.316C101.855 147.784 101.505 148.081 101.505 148.081C99.5578 152.752 100.387 155.584 100.387 155.584L101.071 156.356C101.527 156.869 101.739 157.552 101.66 158.232C101.593 158.827 101.101 159.282 100.506 159.307L100.038 159.325C98.7223 159.374 97.4796 158.712 96.7839 157.589C96.5044 157.134 96.3798 156.597 96.4558 156.069C96.9297 152.768 95.7235 146.11 95.7235 146.11C95.7235 146.11 98.616 142.439 98.616 139.986C98.616 137.532 99.1993 135.021 99.9467 132.367C100.044 132.021 100.138 131.619 100.241 131.182C100.275 131.036 100.31 130.887 100.346 130.734C99.2716 130.989 98.1049 130.808 97.1636 130.185C95.8238 129.297 95.0126 127.558 95.1311 125.864C95.1463 125.629 95.2161 125.407 95.3346 125.208C95.7778 124.459 96.407 124.366 96.9004 124.611C95.848 122.598 95.923 119.888 97.2153 118.023L98.5339 121.345C97.7956 118.779 98.0994 115.884 99.3481 113.562C100.263 111.859 101.678 110.483 103.325 109.644C103.726 109.439 104.091 109.985 103.796 110.342C102.389 112.042 101.496 114.242 101.329 116.521C101.12 119.399 102.074 122.354 103.885 124.47C104.676 124.007 105.649 123.728 106.856 123.728C119.398 123.728 124.277 121.757 124.277 121.757L124.268 121.77L125.6 121.876C125.217 121.323 123.766 119.017 124.38 116.637L123.463 115.554C123.128 115.16 122.937 114.666 122.919 114.15C122.876 112.844 122.934 110.324 123.903 109.18C124.979 107.911 125.552 110.219 125.896 111.607C125.98 111.947 126.051 112.233 126.112 112.396C126.112 112.396 126.951 111.189 129.218 110.637C129.272 109.715 129.471 107.729 130.189 107.218C130.92 106.699 131.425 108.404 131.804 109.68C131.883 109.946 131.956 110.193 132.024 110.397Z" fill="#524984"/>
<path d="M133.547 159.383C133.547 159.383 133.537 159.383 133.531 159.383C133.446 159.374 133.386 159.297 133.392 159.212C133.577 157.296 132.726 156.835 132.717 156.829C132.641 156.789 132.611 156.698 132.647 156.621C132.684 156.545 132.775 156.514 132.851 156.551C132.893 156.572 133.905 157.091 133.695 159.242C133.686 159.322 133.619 159.383 133.54 159.383H133.547Z" fill="#80809A"/>
<path d="M132.435 159.383C132.435 159.383 132.426 159.383 132.42 159.383C132.334 159.374 132.274 159.297 132.28 159.212C132.465 157.296 131.614 156.835 131.605 156.829C131.529 156.789 131.499 156.698 131.535 156.621C131.572 156.545 131.663 156.515 131.739 156.551C131.781 156.573 132.793 157.091 132.584 159.242C132.574 159.322 132.508 159.383 132.429 159.383H132.435Z" fill="#80809A"/>
<path d="M121.8 156.243C121.752 156.243 121.7 156.219 121.673 156.173C121.624 156.103 121.645 156.005 121.715 155.956C122.366 155.523 122.879 154.543 122.882 154.531C122.922 154.455 123.013 154.424 123.092 154.464C123.168 154.504 123.198 154.598 123.159 154.675C123.137 154.717 122.603 155.733 121.889 156.212C121.861 156.231 121.834 156.24 121.803 156.24L121.8 156.243Z" fill="#80809A"/>
<path d="M120.904 155.932C120.856 155.932 120.804 155.907 120.777 155.861C120.728 155.791 120.749 155.694 120.819 155.648C121.47 155.211 121.983 154.235 121.986 154.223C122.026 154.147 122.12 154.119 122.196 154.156C122.272 154.195 122.302 154.29 122.263 154.366C122.241 154.409 121.707 155.425 120.993 155.904C120.965 155.922 120.938 155.932 120.907 155.932H120.904Z" fill="#80809A"/>
<path d="M101.235 159.172H101.229C101.144 159.169 101.077 159.096 101.083 159.01C101.147 157.613 100.275 156.991 100.266 156.984C100.196 156.936 100.177 156.838 100.226 156.768C100.275 156.698 100.372 156.679 100.442 156.728C100.484 156.759 101.463 157.457 101.39 159.023C101.387 159.105 101.317 159.172 101.235 159.172V159.172Z" fill="#80809A"/>
<path d="M100.12 159.486H100.114C100.029 159.483 99.9621 159.41 99.9651 159.325C100.029 157.936 99.1843 157.326 99.1478 157.299C99.078 157.25 99.0597 157.152 99.1084 157.082C99.157 157.012 99.2542 156.993 99.3241 157.042C99.3666 157.073 100.345 157.772 100.272 159.337C100.269 159.419 100.199 159.486 100.117 159.486H100.12Z" fill="#80809A"/>
<path d="M108.278 159.172H108.272C108.187 159.169 108.12 159.096 108.126 159.01C108.19 157.622 107.345 157.012 107.308 156.984C107.239 156.936 107.22 156.838 107.269 156.768C107.318 156.698 107.415 156.679 107.485 156.728C107.527 156.759 108.506 157.457 108.433 159.023C108.43 159.105 108.36 159.172 108.278 159.172V159.172Z" fill="#80809A"/>
<path d="M107.163 159.486H107.156C107.071 159.483 107.005 159.41 107.008 159.325C107.071 157.927 106.199 157.305 106.19 157.299C106.12 157.25 106.102 157.152 106.151 157.082C106.199 157.012 106.297 156.993 106.367 157.042C106.409 157.073 107.387 157.772 107.314 159.337C107.311 159.419 107.242 159.486 107.16 159.486H107.163Z" fill="#80809A"/>
<path d="M102.356 147.41C102.302 147.41 102.25 147.379 102.22 147.33C102.177 147.254 102.205 147.159 102.281 147.12C107.491 144.242 108.296 142.427 108.807 140.349C109.18 138.823 109.074 136.69 107.655 135.281C107.594 135.22 107.594 135.122 107.655 135.061C107.716 135 107.813 135 107.874 135.061C109.384 136.559 109.502 138.814 109.107 140.422C108.491 142.942 107.288 144.712 102.432 147.391C102.408 147.403 102.384 147.41 102.36 147.41H102.356Z" fill="#80809A"/>
<path d="M112.458 141.157C112.44 141.157 112.422 141.154 112.404 141.148L108.992 139.876C108.913 139.845 108.87 139.757 108.9 139.677C108.931 139.598 109.019 139.555 109.098 139.586L112.51 140.858C112.589 140.889 112.631 140.977 112.601 141.056C112.577 141.12 112.519 141.157 112.455 141.157H112.458Z" fill="#80809A"/>
<path d="M119.44 142.546C119.364 142.546 119.298 142.488 119.288 142.411C119.282 142.378 118.872 138.918 122.864 136.199C122.934 136.15 123.032 136.168 123.08 136.242C123.129 136.312 123.111 136.41 123.038 136.458C119.2 139.07 119.589 142.341 119.592 142.372C119.604 142.457 119.544 142.533 119.459 142.546C119.453 142.546 119.443 142.546 119.437 142.546H119.44Z" fill="#80809A"/>
<path d="M129.348 141.346C129.269 141.346 129.202 141.288 129.196 141.209C129.187 141.124 129.248 141.047 129.333 141.038C129.348 141.038 130.943 140.861 132.122 140.394C132.201 140.361 132.292 140.4 132.323 140.483C132.353 140.562 132.313 140.654 132.234 140.684C131.016 141.166 129.433 141.34 129.366 141.346C129.36 141.346 129.354 141.346 129.351 141.346H129.348Z" fill="#80809A"/>
<path d="M130.238 110.485C130.156 110.485 130.086 110.421 130.083 110.336C130.031 108.975 130.448 107.809 130.466 107.761C130.496 107.681 130.584 107.639 130.663 107.669C130.742 107.7 130.785 107.788 130.754 107.867C130.751 107.88 130.341 109.024 130.39 110.324C130.393 110.409 130.326 110.482 130.241 110.485H130.235H130.238Z" fill="#80809A"/>
<path d="M125.222 113.915C125.222 113.915 125.201 113.915 125.188 113.912C124.751 113.818 124.429 113.583 124.234 113.213C123.645 112.112 124.395 110.177 124.429 110.095C124.459 110.016 124.55 109.976 124.629 110.006C124.708 110.037 124.748 110.128 124.717 110.208C124.711 110.226 123.988 112.09 124.508 113.064C124.663 113.354 124.906 113.528 125.255 113.604C125.337 113.622 125.392 113.705 125.374 113.787C125.359 113.86 125.295 113.909 125.222 113.909V113.915Z" fill="#80809A"/>
<path d="M132.076 112.435C132.027 111.987 131.851 111.639 131.684 111.66C131.517 111.679 131.423 112.057 131.471 112.506C131.52 112.954 131.696 113.302 131.863 113.281C132.03 113.262 132.124 112.884 132.076 112.435Z" fill="#80809A"/>
<path d="M138.45 110.327C138.013 110.086 137.46 110.04 136.895 110.095H136.891C136.49 110.455 136.211 110.907 136.418 111.075C136.669 111.28 137.784 111.418 138.294 111.471C138.281 111.518 138.292 111.569 138.332 111.609C138.338 111.618 138.48 111.862 138.505 113.189C138.511 113.509 138.426 113.735 138.237 113.879C137.797 114.218 136.947 114.003 136.832 113.973L136.819 113.97C136.737 113.949 136.651 113.995 136.627 114.077C136.606 114.159 136.651 114.245 136.734 114.269L136.742 114.271C136.802 114.288 137.139 114.379 137.526 114.379L137.523 114.382C137.83 114.382 138.168 114.324 138.423 114.129C138.593 113.995 138.709 113.817 138.768 113.594C138.889 113.75 139.02 113.827 139.164 113.827L139.161 113.83H139.176C139.553 113.815 139.775 113.265 139.814 113.156C139.845 113.076 139.802 112.988 139.723 112.957C139.644 112.927 139.556 112.969 139.526 113.049C139.453 113.244 139.289 113.516 139.167 113.519C139.097 113.519 138.979 113.412 138.848 113.119C138.839 113.097 138.825 113.079 138.809 113.064C138.787 112.193 138.706 111.61 138.585 111.434L138.948 110.785C138.803 110.586 138.635 110.428 138.45 110.327Z" fill="#80809A"/>
<path d="M124.565 119.963L123.924 121.879L136.354 123.414L136.299 122.084L124.565 119.963Z" fill="#80809A"/>
<path d="M68.4792 153.476L62.8706 140.639L68.5278 139.818L73.1854 151.187L72.675 154.339L68.4792 153.476Z" fill="#DAD9E6"/>
<path d="M64.0559 146.433L70.5395 142.729L54.5583 98.8423L48.6945 94.6132L41.2417 96.2548L64.0559 146.433Z" fill="#B5B3CD"/>
<path d="M67.5524 151.871L69.9374 158.889L86.6781 151.669C86.6781 151.669 85.2197 146.961 83.3543 147.41C81.4857 147.858 76.4726 149.185 76.4726 149.185L71.4474 147.788L71.3684 152.493L67.5493 151.874L67.5524 151.871Z" fill="#80809A"/>
<path d="M76.4938 149.154C76.4938 149.154 73.565 146.445 72.4256 146.06C71.0128 145.584 70.6361 147.26 72.2585 148.032C73.8809 148.807 76.4938 149.151 76.4938 149.151V149.154Z" fill="#80809A"/>
<path d="M76.4937 149.295C76.5454 149.295 76.594 149.265 76.6183 149.216C76.6426 149.161 76.6304 149.097 76.5849 149.054C76.4633 148.941 73.6226 146.32 72.468 145.933C71.6994 145.673 71.2619 146.006 71.1221 146.369C70.9125 146.903 71.2193 147.693 72.2037 148.163C73.8261 148.938 76.3722 149.283 76.4785 149.295C76.4846 149.295 76.4907 149.295 76.4968 149.295H76.4937ZM71.9546 146.119C72.0822 146.119 72.228 146.143 72.3799 146.195C73.2519 146.488 75.2541 148.23 76.0592 148.95C75.245 148.813 73.501 148.477 72.3161 147.91C71.4928 147.516 71.2163 146.876 71.3712 146.47C71.4624 146.238 71.672 146.116 71.9546 146.116V146.119Z" fill="white"/>
<path d="M77.2504 150.229C77.299 150.229 77.3446 150.201 77.3689 150.159L78.5629 147.986L79.2647 149.64C79.2951 149.71 79.3741 149.744 79.444 149.713C79.5139 149.683 79.5443 149.6 79.5139 149.53L78.7057 147.62C78.6844 147.571 78.6389 147.541 78.5872 147.538C78.5356 147.538 78.4869 147.562 78.4626 147.608L77.2686 149.78L76.4058 147.742C76.3875 147.696 76.345 147.666 76.2964 147.66C76.2478 147.654 76.2022 147.675 76.1718 147.715L74.7499 149.625L74.1666 145.884C74.1574 145.823 74.1088 145.774 74.0481 145.768C73.9873 145.759 73.9296 145.795 73.9053 145.85L72.5928 149.011C72.5624 149.082 72.5927 149.164 72.6657 149.194C72.7355 149.225 72.8145 149.194 72.8449 149.121L73.9721 146.402L74.5312 149.988C74.5403 150.043 74.5798 150.088 74.6314 150.101C74.6831 150.113 74.7408 150.095 74.7742 150.049L76.2478 148.068L77.1288 150.146C77.1501 150.195 77.1957 150.226 77.2473 150.229H77.2534H77.2504Z" fill="white"/>
<path d="M24.762 135.925L37.3828 130.384L38.1849 136.15L27.6361 139.751L23.9082 140.184L24.762 135.925Z" fill="#DAD9E6"/>
<path d="M41.2414 96.786L49.2776 122.725L31.1909 132.416L34.6332 139.056L54.6006 130.591C57.1709 129.502 58.7235 126.835 58.4379 124.007L57.095 110.837L42.9854 95.834L41.2414 96.786V96.786Z" fill="#B5B3CD"/>
<path d="M26.005 135.214L19.4971 138.488L28.8002 154.504C28.8002 154.504 33.1874 152.45 32.4947 150.623C31.802 148.795 29.8301 143.891 29.8301 143.891L30.5077 138.646L25.9169 139.147L26.0019 135.214H26.005Z" fill="#80809A"/>
<path d="M29.8604 143.91C29.8604 143.91 32.0996 140.617 32.3183 139.418C32.5887 137.935 30.9086 137.758 30.3769 139.495C29.8452 141.228 29.8604 143.91 29.8604 143.91Z" fill="#80809A"/>
<path d="M29.9181 144.035C29.9394 144.025 29.9606 144.01 29.9728 143.989C30.0639 143.855 32.2302 140.66 32.452 139.445C32.6009 138.637 32.215 138.237 31.8444 138.139C31.2944 137.996 30.5683 138.399 30.2462 139.452C29.7115 141.188 29.7237 143.8 29.7237 143.909C29.7237 143.97 29.7632 144.022 29.8209 144.041C29.8543 144.05 29.8877 144.05 29.9181 144.035V144.035ZM31.3157 138.457C31.4767 138.384 31.6378 138.365 31.7805 138.405C32.1239 138.496 32.2819 138.872 32.1877 139.39C32.0206 140.309 30.5956 142.546 30.0062 143.446C30.0275 142.607 30.1186 140.803 30.5106 139.537C30.6898 138.957 31.0058 138.6 31.3187 138.46L31.3157 138.457Z" fill="white"/>
<path d="M29.8938 147.01C29.8938 147.01 29.9029 147.007 29.909 147.004L31.659 145.951C31.7046 145.924 31.7289 145.875 31.7228 145.823C31.7198 145.771 31.6864 145.725 31.6378 145.704L29.3621 144.767L31.2306 143.644C31.2732 143.62 31.2975 143.574 31.2975 143.525C31.2975 143.476 31.2701 143.431 31.2276 143.406L29.1738 142.204L32.7376 141.151C32.7953 141.133 32.8348 141.081 32.8348 141.017C32.8348 140.956 32.7923 140.901 32.7346 140.883L29.4776 139.946C29.4047 139.925 29.3287 139.967 29.3105 140.041C29.2922 140.114 29.3348 140.19 29.4077 140.212L32.2059 141.017L28.7909 142.024C28.7393 142.039 28.6998 142.085 28.6937 142.14C28.6876 142.195 28.715 142.25 28.7636 142.277L30.8904 143.522L28.9884 144.666C28.9428 144.694 28.9185 144.743 28.9246 144.795C28.9277 144.846 28.9611 144.892 29.0097 144.914L31.2853 145.85L29.7692 146.763C29.7054 146.802 29.6842 146.885 29.7237 146.952C29.7601 147.013 29.8361 147.037 29.8969 147.007L29.8938 147.01Z" fill="white"/>
<path d="M56.6539 129.967C56.579 129.992 56.4862 129.926 56.4393 129.815L48.8838 111.039C48.8368 110.918 48.8576 110.789 48.9353 110.753C49.013 110.718 49.1144 110.781 49.1614 110.901L56.7169 129.678C56.7638 129.799 56.7431 129.927 56.6654 129.963C56.6596 129.965 56.6567 129.966 56.651 129.968L56.6539 129.967Z" fill="#80809A"/>
<path d="M52.3583 122.877H49.2775C49.1924 122.877 49.1226 122.807 49.1226 122.721C49.1226 122.636 49.1924 122.566 49.2775 122.566H52.3583C52.4434 122.566 52.5132 122.636 52.5132 122.721C52.5132 122.807 52.4434 122.877 52.3583 122.877V122.877Z" fill="#80809A"/>
<path d="M51.3098 125.236C51.2703 125.236 51.2308 125.221 51.2004 125.19L49.5871 123.57C49.5263 123.509 49.5263 123.411 49.5871 123.35C49.6478 123.289 49.7451 123.289 49.8058 123.35L51.4191 124.971C51.4799 125.032 51.4799 125.129 51.4191 125.19C51.3888 125.221 51.3493 125.236 51.3098 125.236V125.236Z" fill="#80809A"/>
<path d="M52.395 61.8508L50.8638 66.7634L53.9111 68.2494L56.0075 62.8517L52.395 61.8508Z" fill="#FFC192"/>
<path d="M55.7639 63.4804L53.8711 62.8641L55.2383 64.8322L55.7639 63.4804Z" fill="#FF974A"/>
<path d="M59.2406 57.8021C58.6633 55.2055 56.3512 54.583 56.3512 54.583L56.3543 54.58L52.4623 55.8859C52.4623 55.8859 51.727 60.4537 52.8117 62.0343C53.8963 63.6179 56.7128 64.1427 58.2289 63.0961C59.2509 62.3891 59.6541 61.0918 59.4805 59.2727L60.2705 58.034L59.3165 58.1655C59.2932 58.0461 59.2679 57.925 59.2406 57.8021Z" fill="#FFC192"/>
<path d="M52.869 53.8811C52.869 53.8811 55.017 53.2678 58.3986 54.3968C59.1885 54.6592 56.1351 55.5319 55.4545 55.3946C55.4545 55.3946 56.6941 56.0354 56.0075 56.3405C55.4272 56.5998 54.8681 56.4015 54.3061 56.0781C54.3061 56.0781 54.6859 57.4664 53.1363 58.5313C51.5868 59.5932 53.349 62.2386 53.349 62.2386L51.8846 63.4897C51.8846 63.4897 49.2109 61.2226 49.2109 58.2109C49.2109 55.4434 51.2374 54.6226 52.869 53.8842V53.8811Z" fill="#80809A"/>
<path d="M51.21 59.8983C51.0945 59.1203 51.5928 58.4001 52.325 58.2903C53.0572 58.1805 53.7408 58.7236 53.8563 59.5047C53.9717 60.2828 53.4704 61.0029 52.7413 61.1127C52.009 61.2226 51.3254 60.6795 51.21 59.8983Z" fill="#FFC192"/>
<path d="M56.6097 56.6455C56.5641 56.6455 56.5216 56.6272 56.4912 56.5906C56.4365 56.5235 56.4456 56.4258 56.5125 56.3709C57.0594 55.9163 57.8037 56.1451 57.8372 56.1543C57.9192 56.1787 57.9648 56.2672 57.9374 56.3495C57.9131 56.4319 57.825 56.4777 57.743 56.4502C57.7369 56.4502 57.1232 56.2641 56.71 56.6089C56.6826 56.6333 56.6462 56.6455 56.6127 56.6455H56.6097Z" fill="#80809A"/>
<path d="M59.089 61.2804C58.8824 61.2804 58.4206 61.2133 57.8403 60.7221C57.7765 60.6671 57.7674 60.5695 57.822 60.5024C57.8767 60.4383 57.974 60.4291 58.0408 60.4841C58.6971 61.0363 59.1437 60.9662 59.1498 60.9662C59.2318 60.9479 59.3138 61.0058 59.329 61.0913C59.3442 61.1737 59.2926 61.256 59.2105 61.2713C59.2044 61.2713 59.1619 61.2804 59.092 61.2804H59.089Z" fill="#80809A"/>
<path d="M56.7958 57.1638L58.2986 56.9402C58.6472 56.8883 58.9716 57.13 59.0232 57.4801L59.1257 58.1743C59.2058 58.7176 58.8321 59.2236 58.2911 59.3041L57.4796 59.4249C56.9387 59.5054 56.4348 59.13 56.3547 58.5867L56.2531 57.8986C56.201 57.5454 56.4442 57.2162 56.7958 57.1638V57.1638Z" fill="#A461D8"/>
<path d="M59 58.2754C58.9514 58.2754 58.9058 58.2541 58.8754 58.2113C58.8238 58.1412 58.8389 58.0466 58.9088 57.9947L59.2521 57.7384C59.322 57.6865 59.4162 57.7018 59.4679 57.772C59.5195 57.8421 59.5043 57.9367 59.4344 57.9886L59.0911 58.2449C59.0638 58.2663 59.0304 58.2754 59 58.2754Z" fill="#80809A"/>
<path d="M52.9967 58.8885C52.9238 58.8885 52.86 58.8366 52.8448 58.7634C52.8266 58.678 52.8813 58.5986 52.9633 58.5803L56.2355 57.8999C56.3175 57.8816 56.3996 57.9365 56.4178 58.0189C56.436 58.1043 56.3813 58.1837 56.2993 58.202L53.0271 58.8824C53.0271 58.8824 53.0058 58.8855 52.9967 58.8855V58.8885Z" fill="#80809A"/>
<path d="M53.3278 59.9687C53.3552 59.987 53.3856 59.9962 53.4159 59.9962C53.4645 59.9962 53.5132 59.9718 53.5435 59.929C53.5922 59.8589 53.5739 59.7612 53.504 59.7124L52.1976 58.8153C52.1277 58.7665 52.0305 58.7848 51.9819 58.855C51.9333 58.9252 51.9515 59.0228 52.0214 59.0716L52.9207 59.6891L52.5379 60.2463C52.4893 60.3165 52.5075 60.4141 52.5774 60.4629C52.6047 60.4812 52.6351 60.4904 52.6655 60.4904C52.7141 60.4904 52.7627 60.466 52.7931 60.4233L53.1767 59.8649L53.3278 59.9687Z" fill="#80809A"/>
<path d="M40.6149 92.5198L38.9834 99.4158L47.3143 96.8954L56.6204 103.349L56.2072 93.722L40.6149 92.5198Z" fill="white"/>
<path d="M73.6117 95.6995C73.6117 95.6995 78.5063 97.8994 79.8097 100.566C80.9096 102.815 77.5645 104.155 77.5645 104.155L74.7845 102.299L70.458 97.9055L73.6087 95.6995H73.6117Z" fill="#FFC192"/>
<path d="M78.2356 101.5C78.184 101.5 78.1323 101.472 78.1019 101.423C77.6432 100.661 76.7864 100.554 76.7773 100.554C76.6922 100.545 76.6314 100.468 76.6406 100.383C76.6497 100.297 76.7256 100.236 76.8107 100.246C76.8532 100.249 77.8255 100.365 78.3663 101.262C78.4088 101.335 78.3875 101.43 78.3146 101.475C78.2903 101.491 78.263 101.497 78.2356 101.497V101.5Z" fill="#80809A"/>
<path d="M77.3815 102.699C77.342 102.699 77.2995 102.684 77.2691 102.65C77.2114 102.589 77.2114 102.489 77.2752 102.431L77.9011 101.833C77.9618 101.775 78.0591 101.775 78.1198 101.839C78.1776 101.9 78.1776 101.997 78.1138 102.058L77.4879 102.656C77.4575 102.684 77.421 102.699 77.3815 102.699Z" fill="#80809A"/>
<path d="M78.9012 108.823C78.652 108.823 78.3998 108.78 78.1538 108.698C77.5704 108.499 77.0995 108.084 76.8291 107.529L75.3343 104.472C75.0639 103.916 75.0213 103.288 75.2218 102.705C75.4193 102.119 75.8356 101.646 76.3855 101.375C77.5248 100.813 78.9103 101.286 79.4693 102.43L80.9641 105.488C81.2345 106.043 81.2771 106.672 81.0765 107.254C80.8791 107.84 80.4628 108.313 79.9129 108.585C79.5908 108.743 79.2475 108.823 78.8981 108.823H78.9012ZM77.4003 102.064C77.1967 102.064 76.9901 102.11 76.7957 102.205C76.1151 102.54 75.8325 103.373 76.1667 104.057L77.6615 107.114C77.8226 107.447 78.1051 107.694 78.4545 107.813C78.8039 107.932 79.1776 107.907 79.5058 107.746C79.8369 107.584 80.083 107.3 80.2015 106.949C80.32 106.598 80.2957 106.223 80.1347 105.894L78.6399 102.836C78.3998 102.348 77.9107 102.064 77.4003 102.064V102.064Z" fill="#80809A"/>
<path d="M71.7096 99.3332C71.7096 99.3332 72.3719 101.902 73.7087 102.671C75.1792 103.516 77.1632 105.216 77.7374 104.551C78.1354 104.09 78.3086 103.102 75.9601 101.112C73.6145 99.1226 73.6996 97.5573 73.6996 97.5573L70.0537 98.1065L71.7096 99.3332V99.3332Z" fill="#FFC192"/>
<path d="M77.9531 104.127C77.9531 104.127 77.9257 104.127 77.9136 104.121C77.8315 104.1 77.7829 104.014 77.8042 103.935C77.8103 103.91 77.9591 102.995 75.8628 101.231C75.7959 101.176 75.7898 101.079 75.8445 101.012C75.8992 100.948 75.9964 100.938 76.0633 100.993C78.3268 102.897 78.1354 103.904 78.105 104.011C78.0868 104.081 78.0229 104.127 77.9561 104.127H77.9531Z" fill="#80809A"/>
<path d="M116.696 121.892C112.962 121.892 108.311 121.736 103.592 121.184C89.0909 119.484 80.9059 115.038 79.2591 107.962C79.2014 107.712 79.3564 107.462 79.6055 107.404C79.8546 107.346 80.1038 107.502 80.1615 107.752C83.8803 123.722 124.252 120.744 124.66 120.711C124.915 120.686 125.137 120.882 125.158 121.138C125.179 121.394 124.988 121.617 124.733 121.638C124.675 121.641 121.421 121.892 116.699 121.892H116.696Z" fill="#80809A"/>
<path d="M54.6582 69.9796L74.7045 95.7721L70.3781 99.3696L55.8705 84.5617L54.6582 69.9796Z" fill="#A461D8"/>
<path d="M54.6127 69.4642C54.6127 69.4642 56.0255 75.3868 56.0255 79.2589C56.0255 83.131 56.6058 93.9509 56.6058 93.9509H39.6919L47.1417 69.9952L54.6127 69.4673V69.4642Z" fill="#A461D8"/>
<path d="M54.2246 67.4428L54.4269 66.9218L54.9532 67.0965L56.8521 71.4049L54.2119 70.3583L54.2246 67.4428Z" fill="#D6BCFA"/>
<path d="M54.6279 67.359L51.0792 65.9157L48.7671 68.4483L55.2386 71.646L54.6279 67.359Z" fill="white"/>
<path d="M37.4766 99.6326C37.4766 99.6326 36.9719 101.36 37.2119 102.324C37.2411 102.441 37.2644 102.604 37.2822 102.8C37.9417 103.494 38.7358 104.432 39.0137 105.189C39.445 106.37 39.6144 107.297 39.8301 107.892C39.8878 108.054 39.8094 108.21 39.6426 108.256C39.3267 108.344 38.9377 108.191 38.7432 107.908C38.4728 107.508 38.1231 106.935 37.959 106.413C37.8932 106.201 37.6199 105.943 37.3203 105.712C37.3079 106.309 37.2921 106.826 37.2812 107.108L37.3242 111.734C37.3302 112.048 37.0503 112.256 36.707 112.195C36.3821 112.137 36.1186 111.859 36.1094 111.563L35.959 106.949L35.9463 106.945L35.4863 111.634C35.4528 111.963 35.1429 112.159 34.8027 112.067C34.4807 111.979 34.247 111.664 34.2773 111.352L34.6992 106.576L34.6699 106.567L34.1279 110.727C34.0913 111.014 33.7785 111.172 33.4385 111.075C33.1164 110.983 32.8915 110.696 32.9219 110.425L33.4248 106.199L33.3418 106.175L32.1104 108.856C32.0222 109.051 31.7395 109.094 31.4873 108.954C31.2505 108.823 31.1289 108.573 31.2109 108.386L32.3477 105.826C32.4136 105.438 32.8269 103.02 32.9805 102.4C33.1476 101.726 33.4902 101.28 33.4902 101.28L33.9434 98.5251H33.9463L37.4766 99.6326Z" fill="#FFC192"/>
<path d="M47.6277 68.8388C51.6442 66.5747 52.9568 72.1372 52.9568 72.1372H52.9537L51.3972 76.0339L51.4918 76.1014L51.2816 76.3231L50.4624 78.3741C50.4624 78.3741 49.154 79.2669 47.3766 80.4443L40.6154 87.5798L37.8354 101.851L32.4395 100.652L34.4234 86.4447C34.7029 85.2791 35.2346 84.1898 35.982 83.2561L45.1035 71.8279C46.0906 70.312 46.9753 69.2067 47.6277 68.8388Z" fill="#A461D8"/>
<path d="M42.1439 86.2249C42.1075 86.2249 42.068 86.2096 42.0376 86.1822C41.9738 86.1242 41.9708 86.0265 42.0315 85.9625L48.263 79.2832C48.3207 79.2191 48.4179 79.2161 48.4817 79.2771C48.5425 79.3351 48.5486 79.4327 48.4878 79.4968L42.2564 86.1761C42.226 86.2096 42.1834 86.2249 42.1439 86.2249Z" fill="white"/>
<path d="M56.4146 85.1569C56.3356 85.1569 56.2687 85.0959 56.2596 85.0166L55.0868 71.661C55.0808 71.5756 55.1415 71.4993 55.2266 71.4932C55.3117 71.4871 55.3876 71.5481 55.3937 71.6336L56.5665 84.9891C56.5725 85.0745 56.5118 85.1508 56.4267 85.1569C56.4206 85.1569 56.4176 85.1569 56.4115 85.1569H56.4146Z" fill="white"/>
<path d="M40.1444 86.9027C40.1019 86.9027 40.0593 86.8843 40.029 86.8508L38.5038 85.1024C38.446 85.0383 38.4552 84.9407 38.519 84.8827C38.5828 84.8278 38.68 84.8339 38.7377 84.8979L40.2629 86.6463C40.3206 86.7104 40.3115 86.8081 40.2477 86.866C40.2173 86.8904 40.1809 86.9057 40.1444 86.9057V86.9027Z" fill="white"/>
</g>
<defs>
<clipPath id="clip0_880_4293">
<rect width="121.15" height="107.212" fill="white" transform="translate(18.6772 53.2473)"/>
</clipPath>
</defs>
</svg>
