<svg width="168" height="169" viewBox="0 0 168 169" fill="none" xmlns="http://www.w3.org/2000/svg">
<circle opacity="0.88" cx="84" cy="84.4597" r="83.5" stroke="#ECECF2"/>
<path d="M139.467 84.2816C139.467 115.473 114.708 140.759 84.166 140.759C53.6242 140.759 28.8652 115.473 28.8652 84.2816C28.8652 53.09 53.6242 27.8043 84.166 27.8043C114.708 27.8043 139.467 53.09 139.467 84.2816Z" fill="#FFEADB"/>
<g clip-path="url(#clip0_880_4277)">
<ellipse cx="83.6183" cy="104.384" rx="35.8966" ry="19.1449" fill="#80809A"/>
<path d="M47.9807 111.804C55.3817 117.632 68.7184 121.614 83.5695 121.614C99.3549 121.614 113.417 117.115 120.472 110.685C120.348 110.448 120.281 110.177 120.299 109.889C120.592 105.143 114.564 104.172 114.306 104.133C113.693 104.039 113.201 103.574 113.067 102.961C112.733 101.408 112.094 100.403 111.116 99.8961C109.848 99.2357 108.233 99.5042 107.275 99.7648C107.287 99.7927 107.299 99.8265 107.303 99.8384C104.489 96.9994 102.887 98.3341 102.574 98.0284C97.8754 95.3585 95.6708 94.8115 88.1226 92.7714C86.6298 91.6118 84.5136 90.8381 80.9635 91.0051C75.3523 91.2717 72.7837 94.3208 71.9144 95.6714C69.2161 94.8115 71.035 99.1849 69.8454 97.8534C69.7352 97.734 66.966 94.7763 62.6686 96.3337C58.3968 97.8752 58.6721 101.961 58.6878 102.134C58.7331 102.711 58.4499 103.264 57.9562 103.558C57.4625 103.852 56.8469 103.834 56.369 103.512C56.2254 103.417 52.6872 101.117 50.1638 103.385C46.7534 106.45 47.8942 111.345 47.9453 111.552C47.965 111.637 47.9748 111.723 47.9807 111.806V111.804Z" fill="#FFEEC6"/>
<path fill-rule="evenodd" clip-rule="evenodd" d="M112.743 89.5344C113.673 90.1412 114.565 90.7829 115.408 91.4671C123.33 97.8964 127.346 107.794 127.346 120.886C127.346 136.882 109.109 148.491 83.9821 148.491C58.8549 148.491 40.6167 136.881 40.6167 120.886C40.6167 107.779 44.6142 97.8813 52.5029 91.4656C59.7894 85.5369 70.3816 82.5316 83.9851 82.5316C88.4984 82.5316 92.6734 82.8729 96.5161 83.5374C96.6424 83.5699 96.7778 83.6045 96.9213 83.6412C100.071 84.4466 104.678 85.239 108.507 87.1535C110.9 88.3501 111.378 88.5894 112.743 89.5344ZM109.451 91.1537L105.635 89.5466C104.199 89.068 102.443 88.453 99.8915 87.6321C98.4303 87.162 96.3107 86.7428 95.1265 86.4487C91.6433 85.857 87.9007 85.5339 83.9821 85.5339C64.6546 85.5339 49.5143 93.2937 49.5143 103.197C49.5143 113.1 64.6546 120.859 83.9821 120.859C103.31 120.859 118.448 113.1 118.448 103.197C118.448 98.5033 116.165 95.7687 111.378 92.4183C110.9 91.9397 109.437 91.1561 109.451 91.1537ZM83.9813 142.776C83.8821 142.752 75.5715 139.585 75.5715 133.684C75.5715 132.37 76.1039 131.14 77.04 130.218C77.976 129.297 79.2154 128.795 80.5292 128.805C81.8369 128.816 83.0612 129.333 83.9821 130.26C84.9014 129.332 86.1272 128.816 87.4334 128.805C88.7472 128.795 89.9866 129.295 90.9227 130.218C91.8587 131.138 92.3912 132.37 92.3912 133.684C92.3912 139.583 84.0805 142.752 83.9813 142.776Z" fill="#FF974A"/>
<path d="M96.028 125.801C96.0416 125.621 96.182 125.461 96.3764 125.433C115.363 122.972 122.871 109.73 122.946 109.597C123.057 109.402 123.297 109.335 123.492 109.435C123.687 109.535 123.754 109.786 123.654 109.981C123.579 110.115 115.894 123.718 96.4876 126.221C96.2719 126.247 96.07 126.093 96.0436 125.877C96.046 125.845 96.0476 125.824 96.05 125.792L96.028 125.801Z" fill="white"/>
<path d="M71.5936 125.801C71.5799 125.621 71.4396 125.461 71.2452 125.433C52.2588 122.972 44.7501 109.73 44.6759 109.597C44.5651 109.402 44.325 109.335 44.1296 109.435C43.9342 109.535 43.8678 109.786 43.968 109.981C44.0422 110.115 51.7278 123.718 71.134 126.221C71.3497 126.247 71.5516 126.093 71.578 125.877C71.5756 125.845 71.574 125.824 71.5716 125.792L71.5936 125.801Z" fill="white"/>
<path d="M87.4327 128.807C86.125 128.817 84.9008 129.335 83.9814 130.262C83.0621 129.333 81.8363 128.817 80.5286 128.807C79.2148 128.796 77.9754 129.297 77.0393 130.219C76.1033 131.14 75.5708 132.372 75.5708 133.686C75.5708 139.607 83.9435 142.777 83.9814 142.777C84.0193 142.777 92.392 139.608 92.392 133.686C92.392 132.372 91.8596 131.142 90.9235 130.219C89.9875 129.298 88.748 128.796 87.4343 128.807H87.4327Z" fill="white"/>
<path d="M103.488 59.0146C105.479 60.2694 106.861 62.1101 107.549 64.1623C109.728 63.9165 112.002 64.3798 113.994 65.6346C118.595 68.5342 119.941 74.5625 117 79.0991C114.597 82.8051 110.077 84.3693 105.993 83.2369L96.5864 97.7465C99.4407 100.925 99.9432 105.702 97.5089 109.456C94.5677 113.993 88.453 115.32 83.8513 112.42C81.8599 111.166 80.4783 109.325 79.7898 107.273C77.6116 107.519 75.3369 107.055 73.3456 105.801C68.7439 102.901 67.3978 96.8727 70.339 92.3361C72.7418 88.63 77.2624 87.0659 81.3459 88.1982L90.7528 73.6887C87.8984 70.5099 87.3959 65.7334 89.8302 61.9787C92.7714 57.4421 98.8861 56.115 103.488 59.0146Z" fill="white"/>
</g>
<defs>
<clipPath id="clip0_880_4277">
<rect width="88.0663" height="102.425" fill="white" transform="translate(40.064 46.9491)"/>
</clipPath>
</defs>
</svg>
