<svg width="265" height="265" viewBox="0 0 265 265" fill="none" xmlns="http://www.w3.org/2000/svg">
<circle opacity="0.88" cx="132.665" cy="132.939" r="131.5" stroke="#ECECF2"/>
<path d="M219.987 132.909C219.987 182.123 180.922 222.019 132.734 222.019C84.5451 222.019 45.4805 182.123 45.4805 132.909C45.4805 83.6952 84.5451 43.7995 132.734 43.7995C180.922 43.7995 219.987 83.6952 219.987 132.909Z" fill="#E6F3D8"/>
<mask id="mask0_880_4172" style="mask-type:alpha" maskUnits="userSpaceOnUse" x="1" y="1" width="264" height="264">
<circle cx="133" cy="133" r="132" fill="#D9D9D9"/>
</mask>
<g mask="url(#mask0_880_4172)">
<g clip-path="url(#clip0_880_4172)">
<path d="M162.513 212.619H100.691V287.21H162.513V212.619Z" fill="#80809A"/>
<path d="M169.579 147.093H109.352C109.028 147.093 108.774 146.839 108.774 146.515V86.2993C108.774 85.9755 109.028 85.721 109.352 85.721H169.579C169.903 85.721 170.158 85.9755 170.158 86.2993V146.515C170.158 146.839 169.903 147.093 169.579 147.093ZM109.931 145.936H169.001V86.8777H109.931V145.936V145.936Z" fill="#82C43C"/>
<path d="M132.243 95.8881H146.701V109.178H159.991V123.636H146.701V136.915H132.243V123.636H118.964V109.178H132.243V95.8881Z" fill="#82C43C"/>
<path d="M80.547 138.976C80.547 138.976 82.7627 158.034 77.5454 159.666L83.9155 159.771L85.944 154.651L87.1192 161.021L109.044 148.161L92.9803 135.301L80.5545 138.976H80.547Z" fill="#80809A"/>
<path d="M109.238 145.736L137.226 131.708C144.839 127.891 154.098 130.413 158.724 137.562L193.524 191.973C196.548 196.704 196.181 202.842 192.611 207.176L178.179 226.293L160.775 226.061L171.614 199.773L159.368 183.649L167.205 207.879L99.0657 225.156L89.3123 232.663C84.1099 236.668 76.8192 236.526 71.7665 232.327C67.687 228.928 65.8755 223.524 67.0807 218.359L77.942 171.792C78.8926 167.713 81.3703 164.15 84.8659 161.844L109.216 145.736H109.238Z" fill="#FFD8C0"/>
<path d="M115.51 159.404L101.737 161.014L112.135 216.016L127.614 213.741L115.51 159.404Z" fill="#B5B3CD"/>
<path d="M96.4678 154.18C98.0996 156.8 104.687 166.097 113.198 161.149C121.454 156.343 121.229 143.79 120.945 139.868L109.245 145.736L96.4753 154.18H96.4678Z" fill="#FFC192"/>
<path d="M96.2359 210.799L91.7671 283.4L109.305 271.872L112.06 208.711L96.2359 210.799Z" fill="#FFD8C0"/>
<path d="M124.883 208.007L123.812 266.655L168.496 268.84C168.496 268.84 169.563 212.97 166.023 200.657C162.482 188.343 124.875 208.007 124.875 208.007H124.883Z" fill="#FFD8C0"/>
<path d="M101.798 150.654L112.135 195.506L107.577 196.254L98.9684 173.237L101.371 169.097L94.0879 155.684L101.798 150.654Z" fill="#96D3FF"/>
<path d="M114.463 142.838L117.308 187.998L123.019 180.797L123.603 161.013L119.628 158.775L122.488 139.088L114.463 142.838Z" fill="#96D3FF"/>
<path d="M85.7881 126.665C90.2247 123.633 95.9785 123.872 100.411 126.804C100.612 126.476 100.883 126.188 101.221 125.967C102.538 125.107 104.372 125.571 105.315 127.008C106.25 128.432 105.949 130.275 104.66 131.145C106.112 133.425 106.852 135.952 106.926 138.438L114.739 145.909L106.559 153.012L101.749 149.331C101.645 149.407 101.54 149.482 101.433 149.555C97.2933 152.384 92.0076 152.365 87.7178 149.968C87.6872 150.056 87.6527 150.143 87.6123 150.228C86.9386 151.65 85.1353 152.212 83.5859 151.478C82.0365 150.745 81.3253 148.993 81.999 147.571C82.2893 146.958 82.7895 146.506 83.3887 146.248C83.1948 146 83.0065 145.744 82.8262 145.48C78.5064 139.159 79.8323 130.735 85.7881 126.665Z" fill="#FFC192"/>
<path d="M103.819 129.935C103.819 129.935 109.508 143.184 107.323 150.43L111.035 145.587C111.035 145.587 110.541 133.992 103.819 129.935V129.935Z" fill="#80809A"/>
<path d="M97.0671 140.879C97.0671 140.879 92.2465 135.55 98.3171 131.979C98.3171 131.979 103.819 136.703 97.0671 140.879V140.879Z" fill="white"/>
<path d="M84.3047 146.852C84.3047 146.852 91.0191 150.004 92.2467 144.532C92.2467 144.532 87.1416 140.512 84.3047 146.852V146.852Z" fill="white"/>
<path d="M103.348 149.19C103.221 149.19 103.101 149.123 103.026 149.01C102.921 148.831 102.974 148.606 103.153 148.494C103.198 148.464 107.547 145.739 107.914 136.607C107.922 136.398 108.109 136.248 108.303 136.248C108.513 136.255 108.67 136.428 108.663 136.637C108.281 146.166 103.737 149.018 103.543 149.13C103.483 149.168 103.415 149.183 103.348 149.183V149.19Z" fill="#80809A"/>
<path d="M94.8221 144.128C94.6425 144.128 94.4853 143.993 94.4553 143.813L94.1409 141.807C94.126 141.695 94.1559 141.583 94.2308 141.5C94.3056 141.418 94.4104 141.373 94.5302 141.373L96.7683 141.478C96.9779 141.485 97.1351 141.665 97.1276 141.867C97.1201 142.077 96.9405 142.242 96.7384 142.227L94.9569 142.144L95.1964 143.694C95.2263 143.896 95.0916 144.09 94.882 144.12C94.8595 144.12 94.8446 144.12 94.8221 144.12V144.128Z" fill="#80809A"/>
<path d="M97.6062 147.301C97.434 147.301 97.2769 147.182 97.2394 147.002C97.202 146.8 97.3293 146.605 97.5314 146.56C99.3428 146.201 99.2904 144.143 99.2904 144.053C99.2904 143.843 99.4476 143.671 99.6497 143.664C99.8818 143.649 100.031 143.821 100.039 144.023C100.076 144.988 99.6273 146.905 97.6811 147.294C97.6586 147.294 97.6287 147.294 97.6062 147.294V147.301Z" fill="#80809A"/>
<path d="M92.9808 136.485C92.7936 136.485 92.629 136.343 92.6065 136.148C92.4269 134.314 94.4479 132.039 94.5377 131.941C94.68 131.792 94.912 131.777 95.0692 131.912C95.2264 132.046 95.2339 132.286 95.0991 132.443C95.0767 132.465 93.2053 134.561 93.3551 136.073C93.3775 136.275 93.2278 136.463 93.0182 136.485C93.0032 136.485 92.9958 136.485 92.9808 136.485V136.485Z" fill="#80809A"/>
<path d="M84.3047 143.439C84.2598 143.439 84.2149 143.431 84.1699 143.416C83.9753 143.342 83.8855 143.125 83.9604 142.93C85.0607 140.108 87.9501 140.258 87.98 140.258C88.1896 140.273 88.3393 140.445 88.3318 140.654C88.3168 140.856 88.1297 141.014 87.9351 141.006C87.8378 141.006 85.5547 140.901 84.6565 143.199C84.5966 143.349 84.4544 143.439 84.3047 143.439Z" fill="#80809A"/>
<path d="M102.128 130.265C102.128 130.474 102.3 130.639 102.502 130.639C102.711 130.639 102.876 130.474 102.876 130.265L102.869 129.452L104.501 129.576H104.53C104.725 129.576 104.89 129.426 104.905 129.232C104.92 129.022 104.77 128.843 104.56 128.828L102.863 128.698L102.846 126.649C102.846 126.44 102.674 126.275 102.472 126.275C102.262 126.275 102.098 126.44 102.098 126.649L102.116 128.92C102.107 128.95 102.1 128.982 102.098 129.015C102.094 129.07 102.101 129.124 102.119 129.173L102.128 130.265Z" fill="#80809A"/>
<path d="M84.7388 150.408C84.7538 150.61 84.9185 150.76 85.1131 150.76L85.1056 150.752H85.1356C85.3377 150.737 85.4949 150.565 85.4799 150.355L85.3879 149.011L85.6296 149.008C85.8392 149.008 86.0039 148.844 86.0039 148.634C86.0039 148.424 85.8317 148.267 85.6296 148.26L85.0459 148.265C85.0191 148.261 84.9915 148.259 84.9634 148.26C84.9466 148.261 84.9301 148.263 84.9139 148.267L82.5007 148.29C82.2911 148.29 82.1265 148.454 82.1265 148.664C82.1265 148.873 82.2986 149.038 82.5007 149.038L84.6438 149.018L84.7388 150.408Z" fill="#80809A"/>
<mask id="mask1_880_4172" style="mask-type:luminance" maskUnits="userSpaceOnUse" x="95" y="131" width="6" height="10">
<path d="M97.0671 140.879C97.0671 140.879 92.2465 135.55 98.3171 131.979C98.3171 131.979 103.819 136.703 97.0671 140.879V140.879Z" fill="white"/>
</mask>
<g mask="url(#mask1_880_4172)">
<path d="M102.284 136.111C102.284 138.124 100.652 139.764 98.6309 139.764C96.6098 139.764 94.978 138.132 94.978 136.111C94.978 134.09 96.6098 132.458 98.6309 132.458C100.652 132.458 102.284 134.09 102.284 136.111Z" fill="#80809A"/>
</g>
<mask id="mask2_880_4172" style="mask-type:luminance" maskUnits="userSpaceOnUse" x="84" y="143" width="9" height="5">
<path d="M84.3047 146.852C84.3047 146.852 91.0191 150.004 92.2467 144.532C92.2467 144.532 87.1416 140.512 84.3047 146.852V146.852Z" fill="white"/>
</mask>
<g mask="url(#mask2_880_4172)">
<path d="M89.3647 149.3C91.2291 149.3 92.7406 147.789 92.7406 145.924C92.7406 144.06 91.2291 142.548 89.3647 142.548C87.5002 142.548 85.9888 144.06 85.9888 145.924C85.9888 147.789 87.5002 149.3 89.3647 149.3Z" fill="#80809A"/>
</g>
<path d="M85.7949 126.648C80.398 130.339 78.8185 137.592 81.7828 143.618L82.0897 143.984C85.4132 141.881 85.9671 135.99 85.9671 135.99C86.9327 137.285 87.9208 140.002 87.9208 140.002C88.7966 138.587 89.096 136.23 89.096 136.23C91.7458 141.402 93.3103 127.3 93.3103 127.3C100.07 132.704 100.361 127.517 100.369 126.768C95.9451 123.864 90.2188 123.632 85.7949 126.656V126.648Z" fill="#80809A"/>
<path d="M123.545 170.101C123.215 177.214 122.473 186.374 122.473 186.374V203.059C122.473 203.059 111.32 206.869 118.378 220.747L117.285 220.994C115.721 221.353 114.621 222.738 114.621 224.34C114.621 225.373 115.459 226.211 116.492 226.211L169.511 226.264C169.511 226.264 169.602 220.757 168.565 214.187C170.353 214.646 172.279 214.578 174.002 213.913C177.049 212.738 179.317 209.751 179.661 206.502C179.706 206.053 179.639 205.604 179.466 205.185C178.819 203.606 177.563 203.194 176.468 203.474C179.321 200.06 180.108 194.91 178.104 190.895L174.257 196.689C176.659 192.108 177.041 186.516 175.29 181.658C174.002 178.095 171.584 174.959 168.5 172.758C167.752 172.219 166.816 173.118 167.295 173.904C169.586 177.646 170.656 182.145 170.207 186.516C169.707 191.391 167.333 196.04 163.729 199.348C162.655 197.594 161.38 196.064 159.87 194.893C157.266 192.872 150.527 176.999 147.897 170.101H123.545Z" fill="#524984"/>
<path d="M152.144 226.503H152.151V226.495C152.354 226.495 152.526 226.331 152.526 226.129C152.526 225.926 152.368 225.747 152.159 225.747L148.311 225.642C148.26 225.639 148.21 225.634 148.163 225.629C148.121 223.253 149.878 222.669 149.986 222.633L149.988 222.633C150.19 222.573 150.303 222.363 150.243 222.169C150.183 221.967 149.973 221.854 149.779 221.914L149.777 221.915C149.717 221.934 147.506 222.647 147.42 225.372C147.13 225.15 147.001 224.786 147.001 224.242C147.001 222.745 147.9 221.435 149.292 220.889L151.223 220.133C151.336 220.095 151.418 219.998 151.448 219.886C151.478 219.773 151.455 219.646 151.38 219.556C151.38 219.556 151.377 219.552 151.374 219.547C151.154 219.249 145.85 212.043 149.636 203.351C150.864 200.543 152.466 198.867 154.412 198.373C157.177 197.676 159.751 199.629 159.83 199.689L159.831 199.69C159.989 199.825 160.228 199.795 160.355 199.63C160.483 199.466 160.46 199.234 160.296 199.106C160.176 199.009 157.391 196.853 154.24 197.647C152.054 198.201 150.28 200.019 148.955 203.059C145.452 211.09 149.382 217.917 150.512 219.616L149.023 220.2C147.338 220.859 146.253 222.446 146.253 224.25C146.253 225.575 146.949 226.316 148.281 226.398L152.144 226.503Z" fill="#80809A"/>
<path d="M138.836 226.503C138.11 226.503 137.421 226.188 136.942 225.642C136.44 225.066 136.231 224.31 136.366 223.561L136.598 222.266C136.867 220.702 136.957 219.107 136.867 217.52L135.714 197.924C135.699 197.714 135.857 197.542 136.066 197.527C136.276 197.512 136.448 197.669 136.463 197.879L137.616 217.475C137.713 219.115 137.616 220.769 137.339 222.393L137.107 223.688C137.017 224.212 137.159 224.744 137.511 225.148C137.623 225.277 137.751 225.387 137.89 225.477C137.823 223.606 138.275 222.404 138.304 222.328L138.304 222.326C138.379 222.131 138.596 222.034 138.791 222.116C138.985 222.191 139.075 222.408 139.008 222.603C139.008 222.604 139.005 222.612 139.001 222.626C138.942 222.804 138.547 223.997 138.657 225.745C138.736 225.754 138.815 225.757 138.896 225.754L140.214 225.709C140.098 223.706 140.587 222.407 140.617 222.328L140.617 222.326C140.692 222.131 140.902 222.034 141.104 222.116C141.298 222.191 141.388 222.408 141.321 222.603C141.321 222.604 141.318 222.612 141.314 222.626C141.255 222.802 140.869 223.968 140.966 225.683L141.283 225.672C143.215 225.605 144.742 223.98 144.682 222.042L143.956 198.837C143.956 198.627 144.113 198.455 144.315 198.448C144.502 198.433 144.697 198.605 144.704 198.807L145.43 222.012C145.505 224.355 143.656 226.331 141.313 226.413L138.926 226.495H138.836V226.503Z" fill="#80809A"/>
<path d="M126.679 226.503C125.952 226.503 125.264 226.189 124.785 225.643C124.283 225.066 124.074 224.31 124.208 223.562L124.44 222.267C124.71 220.71 124.8 219.108 124.71 217.521L123.557 197.924C123.542 197.715 123.699 197.543 123.909 197.528C124.111 197.513 124.291 197.67 124.306 197.879L125.466 217.476C125.563 219.123 125.466 220.777 125.189 222.394L124.957 223.689C124.867 224.213 125.009 224.744 125.361 225.149C125.545 225.36 125.773 225.52 126.024 225.622C125.926 223.669 126.402 222.406 126.431 222.329L126.432 222.327C126.506 222.132 126.723 222.035 126.918 222.117C127.113 222.192 127.203 222.409 127.135 222.604C127.135 222.605 127.133 222.612 127.128 222.627C127.069 222.805 126.673 224.001 126.785 225.754L128.341 225.7C128.227 223.702 128.714 222.407 128.744 222.329L128.745 222.327C128.819 222.132 129.029 222.035 129.231 222.117C129.426 222.192 129.516 222.409 129.448 222.604C129.448 222.605 129.446 222.612 129.441 222.627C129.383 222.802 128.998 223.965 129.093 225.674L129.134 225.673C131.065 225.605 132.592 223.981 132.532 222.042L131.806 198.838C131.806 198.628 131.963 198.456 132.165 198.448C132.352 198.433 132.547 198.605 132.555 198.808L133.281 222.012C133.356 224.355 131.507 226.331 129.164 226.414L128.807 226.426C128.799 226.427 128.79 226.428 128.782 226.429H128.745C128.741 226.429 128.737 226.429 128.733 226.429L126.776 226.496H126.686L126.679 226.503Z" fill="#80809A"/>
<path d="M168.665 215.26C168.47 215.26 168.305 215.11 168.29 214.916C167.474 203.822 162.983 198.859 162.938 198.814C162.796 198.665 162.804 198.425 162.961 198.283C163.11 198.141 163.35 198.148 163.492 198.298C163.687 198.508 168.208 203.478 169.046 214.856C169.061 215.065 168.904 215.245 168.702 215.26C168.695 215.26 168.68 215.26 168.672 215.26H168.665Z" fill="#80809A"/>
<path d="M115.507 149.372C115.472 153.327 124.128 156.602 134.826 156.692C145.532 156.782 154.236 153.652 154.27 149.697C154.305 145.742 145.649 142.467 134.951 142.377C124.245 142.287 115.541 145.417 115.507 149.372V149.372Z" fill="#B5B3CD"/>
<path d="M139.162 149.174C139.162 149.174 139.801 142.829 138.09 141.302C136.378 139.775 134.569 145.631 133.541 147.57L139.17 149.175L139.162 149.174Z" fill="#524984"/>
<path d="M137.251 147.705C137.251 147.705 137.251 147.705 137.243 147.704C137.076 147.685 136.965 147.527 136.992 147.361C137.381 144.817 136.835 142.473 136.822 142.447C136.784 142.289 136.883 142.123 137.041 142.085C137.207 142.047 137.365 142.146 137.403 142.304C137.424 142.403 137.99 144.782 137.579 147.452C137.56 147.611 137.41 147.723 137.251 147.705V147.705Z" fill="#80809A"/>
<path d="M143.633 171.369C143.633 171.369 148.206 166.652 147.429 161.121L149.487 159.204C150.236 158.507 150.73 157.58 150.878 156.565C151.26 154.012 151.709 149.041 150.056 146.577C147.77 143.17 145.77 150.835 144.97 152.396C144.97 152.396 143.287 149.284 137.799 147.776C132.312 146.268 129.679 147.853 129.679 147.853C129.679 147.853 124.287 144.243 121.082 145.545C117.884 146.847 116.105 155.755 120.966 159.352C122.349 160.373 122.615 168.806 123.275 169.591C123.934 170.384 143.625 171.368 143.625 171.368L143.633 171.369Z" fill="#524984"/>
<path d="M121.981 153.808C121.36 153.737 120.681 153.538 120.21 153.081C119.709 152.596 119.512 151.92 119.627 151.062C119.896 149.069 120.224 147.825 120.552 147.564C120.729 147.431 120.976 147.452 121.117 147.629C121.258 147.806 121.23 148.053 121.052 148.194C121.068 148.196 120.751 148.708 120.421 151.17C120.344 151.766 120.455 152.206 120.767 152.508C121.443 153.158 122.944 153.072 123.462 152.986C123.684 152.947 123.885 153.099 123.924 153.313C123.964 153.527 123.819 153.736 123.597 153.775C123.548 153.786 122.809 153.903 121.981 153.808V153.808Z" fill="#80809A"/>
<path d="M146.368 155.677C146.185 155.656 146.032 155.509 146.014 155.314C145.991 155.093 146.151 154.894 146.37 154.879C147.047 154.811 147.546 154.538 147.895 154.03C149.121 152.267 148.12 148.484 148.116 148.443C148.061 148.227 148.183 148.007 148.399 147.951C148.615 147.895 148.834 148.017 148.89 148.233C148.936 148.4 149.991 152.415 148.56 154.485C148.077 155.187 147.361 155.589 146.448 155.678C146.416 155.674 146.392 155.68 146.36 155.676L146.368 155.677Z" fill="#80809A"/>
<path d="M118.875 152.347C118.875 152.347 118.851 152.344 118.843 152.343C118.042 152.227 117.719 151.037 117.657 150.804C117.601 150.588 117.739 150.37 117.954 150.322C118.17 150.267 118.388 150.404 118.436 150.62C118.546 151.068 118.807 151.533 118.957 151.558C119.021 151.566 119.242 151.462 119.582 150.888C119.693 150.699 119.942 150.639 120.131 150.749C120.319 150.86 120.388 151.11 120.269 151.298C120.099 151.584 119.598 152.438 118.866 152.354L118.875 152.347Z" fill="#80809A"/>
<path d="M133.189 151.126C133.385 150.261 133.814 149.617 134.136 149.686C134.458 149.763 134.564 150.525 134.368 151.39C134.172 152.254 133.744 152.899 133.421 152.83C133.098 152.76 132.993 151.99 133.189 151.126Z" fill="#80809A"/>
<path d="M124.206 145.435C123.105 145.196 122.003 145.166 121.082 145.536C120.693 145.693 120.331 145.966 119.992 146.323L120.62 147.806C120.62 147.806 124.211 147.919 124.925 147.461C125.369 147.173 124.922 146.227 124.207 145.427L124.206 145.435Z" fill="#80809A"/>
<path d="M147.166 168.823L148.514 170.711L122.263 171.733L122.674 169.135L147.166 168.823Z" fill="#80809A"/>
<path d="M137.072 156.579C121.369 156.963 119.224 153.089 115.752 150.747L122.682 169.136L146.334 168.833L153.634 151.447C150.622 154.222 146.192 156.359 137.072 156.579Z" fill="white"/>
<path d="M128.047 193.474L132.1 189.997H132.106C132.712 189.57 138.656 184.585 139.951 179.068C140.195 178.031 140.41 177.14 140.596 176.374L140.596 176.373C140.956 174.883 141.202 173.867 141.321 173.17C141.44 172.466 141.006 171.65 140.31 171.269C139.993 171.094 139.666 171.043 139.384 171.103C139.636 170.183 139.805 169.523 139.883 169.038C139.973 168.462 139.449 167.691 138.88 167.376C138.124 166.957 137.323 167.129 137.002 167.78C136.89 168.007 136.764 168.262 136.627 168.538C136.803 167.13 136.908 166.188 136.927 165.565C136.942 164.981 136.358 164.419 135.759 164.307C135.496 164.26 135.239 164.275 135.005 164.342C134.918 163.961 134.611 163.586 134.254 163.446C133.453 163.132 132.6 163.401 132.211 164.098C130.856 166.538 127.757 172.017 126.185 174.031C126.123 174.11 126.066 174.191 126.012 174.274C125.994 174.297 125.977 174.321 125.961 174.345C125.611 174.864 125.266 175.387 124.932 175.898C125.101 173.762 125.186 171.031 124.643 170.019C124.224 169.24 123.034 168.334 122.068 169.083C121.489 169.537 120.986 172.234 120.643 174.074C120.556 174.54 120.479 174.953 120.414 175.258C119.673 178.785 118.745 181.123 118.021 182.947C117.414 184.476 116.95 185.645 116.858 186.853C116.704 188.892 112.931 192.037 112.805 192.143L112.801 192.138V192.145L112.805 192.143C116.414 197.422 124.187 196.786 124.187 196.786L127.979 193.532L127.982 193.538L128.047 193.474Z" fill="#FFC192"/>
<path d="M127.892 179.862C127.825 179.862 127.757 179.84 127.698 179.787C127.585 179.682 127.578 179.503 127.683 179.39C127.72 179.353 131.246 175.55 132.952 170.363L133.102 169.906C134.038 167.069 134.547 165.512 134.734 164.667C134.764 164.517 134.913 164.42 135.071 164.45C135.22 164.48 135.318 164.629 135.288 164.786C135.101 165.655 134.584 167.227 133.641 170.079L133.491 170.535C131.747 175.842 128.139 179.735 128.102 179.772C128.049 179.832 127.974 179.862 127.9 179.862H127.892Z" fill="#80809A"/>
<path d="M130.976 182.048C130.916 182.048 130.849 182.026 130.796 181.988C130.676 181.891 130.654 181.711 130.751 181.591C130.781 181.561 133.379 178.29 135.138 173.058L135.317 172.527C136.261 169.72 136.785 168.17 136.972 167.332C137.009 167.182 137.151 167.085 137.309 167.122C137.458 167.16 137.556 167.309 137.518 167.459C137.323 168.327 136.8 169.884 135.849 172.706L135.669 173.238C133.873 178.567 131.215 181.906 131.185 181.943C131.133 182.011 131.051 182.048 130.968 182.048H130.976Z" fill="#80809A"/>
<path d="M133.716 184.308C133.626 184.308 133.544 184.271 133.491 184.189C133.401 184.061 133.431 183.889 133.551 183.799C133.574 183.784 135.49 182.34 137.361 176.965L137.571 176.366C138.581 173.47 139.135 171.875 139.345 171.014C139.382 170.865 139.532 170.767 139.682 170.805C139.831 170.842 139.929 170.992 139.891 171.142C139.682 172.032 139.12 173.642 138.102 176.546L137.893 177.145C135.946 182.721 133.963 184.189 133.88 184.248C133.828 184.286 133.776 184.301 133.716 184.301V184.308Z" fill="#80809A"/>
<path d="M121.043 181.321C120.983 181.321 120.923 181.306 120.871 181.262C120.743 181.172 120.721 180.992 120.818 180.865L124.711 175.73C124.8 175.61 124.98 175.58 125.107 175.677C125.227 175.767 125.257 175.947 125.16 176.074L121.267 181.209C121.215 181.284 121.125 181.321 121.043 181.321Z" fill="#80809A"/>
<path d="M94.17 228.936L127.023 201.24L114.283 186.823L77.8594 213.972L94.17 228.936Z" fill="#FFD8C0"/>
<path d="M94.1705 202.318C94.1256 202.318 94.0881 202.318 94.0432 202.295C93.8486 202.228 93.7513 202.011 93.8186 201.816L97.9506 190.304C98.018 190.109 98.235 190.004 98.4296 190.079C98.6243 190.147 98.7216 190.364 98.6542 190.558L94.5223 202.071C94.4699 202.221 94.3202 202.318 94.1705 202.318Z" fill="#80809A"/>
<path d="M83.3313 209.654C83.2789 209.654 83.219 209.639 83.1666 209.616L78.8101 207.49C78.623 207.401 78.5482 207.176 78.638 206.989C78.7278 206.802 78.9524 206.727 79.1395 206.817L83.496 208.943C83.6831 209.032 83.758 209.257 83.6682 209.444C83.6008 209.579 83.4735 209.654 83.3313 209.654V209.654Z" fill="#80809A"/>
<path d="M94.6189 182.729C94.5066 182.729 94.3943 182.676 94.3195 182.579L83.8175 168.274C83.6977 168.11 83.7276 167.87 83.8998 167.75C84.0645 167.631 84.2965 167.661 84.4238 167.833L94.9258 182.137C95.0455 182.302 95.0156 182.541 94.8434 182.661C94.7761 182.714 94.7012 182.736 94.6189 182.736V182.729Z" fill="#80809A"/>
<path d="M78.1676 214.262C78.1314 214.235 78.1013 214.213 78.0784 214.168C77.9617 213.998 78.0122 213.766 78.1819 213.649L109.058 190.324C109.228 190.207 109.465 190.252 109.577 190.427C109.694 190.597 109.643 190.83 109.474 190.946L78.5973 214.271C78.4663 214.361 78.2881 214.35 78.1676 214.262Z" fill="#80809A"/>
<path d="M226.691 226.286H38.1943V230.321H226.691V226.286Z" fill="#80809A"/>
<path d="M52.416 229.235L52.416 369.826H56.4506L56.4506 229.235H52.416Z" fill="#80809A"/>
<path d="M207.656 229.235V369.826H211.691V229.235H207.656Z" fill="#80809A"/>
</g>
</g>
<defs>
<clipPath id="clip0_880_4172">
<rect width="190.302" height="284.679" fill="white" transform="translate(37.8516 85.7204)"/>
</clipPath>
</defs>
</svg>
